<?xml version="1.0" standalone="no"?>
<!DOCTYPE svg PUBLIC "-//W3C//DTD SVG 1.1//EN" "http://www.w3.org/Graphics/SVG/1.1/DTD/svg11.dtd" >
<svg xmlns="http://www.w3.org/2000/svg" xmlns:xlink="http://www.w3.org/1999/xlink" version="1.1">
<metadata></metadata>
<defs>
<font id="podravka_sanslight" horiz-adv-x="500" >
<font-face units-per-em="1000" ascent="800" descent="-200" />
<missing-glyph horiz-adv-x="221" />
<glyph horiz-adv-x="0" />
<glyph horiz-adv-x="333" />
<glyph unicode=" "  horiz-adv-x="221" />
<glyph unicode="&#x09;" horiz-adv-x="221" />
<glyph unicode="&#xa0;" horiz-adv-x="221" />
<glyph unicode="!" horiz-adv-x="207" d="M77 220l-5 460h63l-5 -460h-53zM56 40q0 20 14 34t34 14t34 -14t14 -34q0 -22 -14 -35.5t-34 -13.5t-34 13.5t-14 35.5z" />
<glyph unicode="&#x22;" horiz-adv-x="348" d="M124 741l-4 -319h-56l-4 319h64zM224 741h64l-4 -319h-56z" />
<glyph unicode="#" horiz-adv-x="650" d="M349 0l36 191h-183l-36 -191h-61l37 191h-112l9 52h113l37 198h-123l9 52h124l35 187h61l-35 -187h182l36 187h60l-35 -187h118l-9 -52h-119l-37 -198h121l-10 -52h-122l-36 -191h-60zM213 243h182l37 198h-183z" />
<glyph unicode="$" horiz-adv-x="542" d="M283 53q166 0 166 122q0 49 -34.5 79t-127.5 57l-43 13q-101 30 -146 73t-45 107q0 74 53.5 122t139.5 54v96h56v-97q84 -8 134 -57.5t54 -129.5h-64q-12 137 -159 137q-71 0 -112 -31.5t-41 -92.5q0 -44 33 -72t132 -59l30 -9q113 -36 158 -76.5t45 -105.5 q0 -80 -56.5 -128.5t-150.5 -53.5v-107h-56v107q-97 8 -154 63t-65 143h64q21 -154 189 -154z" />
<glyph unicode="%" horiz-adv-x="755" d="M616 680h68l-538 -680h-69zM24 536q0 64 46 109t111 45q64 0 109.5 -45t45.5 -109q0 -63 -45.5 -107.5t-109.5 -44.5q-65 0 -111 44t-46 108zM82 537q0 -43 28.5 -71.5t70.5 -28.5t69.5 28t27.5 72t-27 72t-70 28q-42 0 -70.5 -29t-28.5 -71zM417 142q0 64 46 109t111 45 t110 -45t45 -109t-45 -108t-110 -44t-111 44.5t-46 107.5zM475 143q0 -43 29 -71.5t71 -28.5t69 28t27 72q0 43 -27 71.5t-69 28.5q-43 0 -71.5 -29t-28.5 -71z" />
<glyph unicode="&#x26;" horiz-adv-x="627" d="M554 -4q-35 0 -63 13.5t-61 47.5q-90 -67 -187 -67q-93 0 -150 46.5t-57 123.5q0 57 35 101.5t115 86.5q-77 99 -77 166q0 76 54 126t135 50q74 0 121 -41.5t47 -108.5q0 -61 -47 -109.5t-152 -95.5l22 -28l50 -61q6 -7 94 -111q71 90 79 207h58q-12 -133 -101 -247 q26 -26 46 -36t47 -10q24 0 44 12v-52q-20 -13 -52 -13zM97 168q0 -60 40.5 -93t106.5 -33q80 0 152 54q-48 54 -121 142l-42 51q-4 4 -10 12t-9 11q-65 -35 -91 -68.5t-26 -75.5zM170 521q0 -35 15 -67.5t54 -82.5q96 43 132.5 79t36.5 83q0 50 -31 76.5t-82 26.5 q-57 0 -91 -31.5t-34 -83.5z" />
<glyph unicode="'" horiz-adv-x="184" d="M124 741l-4 -319h-56l-4 319h64z" />
<glyph unicode="(" horiz-adv-x="276" d="M273 738q-169 -189 -169 -474q0 -133 42 -257t127 -217h-63q-168 192 -168 476q0 281 171 472h60z" />
<glyph unicode=")" horiz-adv-x="276" d="M63 738q171 -191 171 -472q0 -284 -169 -476h-62q85 93 127 217t42 257q0 285 -169 474h60z" />
<glyph unicode="*" horiz-adv-x="443" d="M386 592l-121 -71l121 -73l-27 -44l-114 74v-127h-50v125l-107 -70l-28 41l112 71l-113 64l25 45l111 -66v137h50v-135l116 72z" />
<glyph unicode="+" horiz-adv-x="479" d="M267 532v-179h166v-53h-166v-181h-58v181h-163v53h163v179h58z" />
<glyph unicode="," horiz-adv-x="183" d="M45 -143q35 74 43 134q-20 1 -33.5 14t-13.5 34t14.5 35t34.5 14t34 -15.5t14 -42.5q0 -83 -47 -173h-46z" />
<glyph unicode="-" horiz-adv-x="349" d="M45 274v54h259v-54h-259z" />
<glyph unicode="." horiz-adv-x="197" d="M99 -9q-21 0 -34.5 13.5t-13.5 35.5q0 20 14 34t34 14t33.5 -14t13.5 -34q0 -21 -13.5 -35t-33.5 -14z" />
<glyph unicode="/" horiz-adv-x="431" d="M359 749h60l-347 -880h-60z" />
<glyph unicode="0" horiz-adv-x="605" d="M305 43q88 0 137.5 79t49.5 218t-49.5 217.5t-135.5 78.5q-89 0 -141.5 -80.5t-52.5 -218.5q0 -136 51.5 -215t140.5 -79zM49 333q0 162 70.5 259.5t188.5 97.5q115 0 181.5 -94t66.5 -255q0 -162 -68 -256.5t-185 -94.5t-185.5 92.5t-68.5 250.5z" />
<glyph unicode="1" horiz-adv-x="281" d="M19 598q99 2 133 82h45v-680h-62v584q-47 -33 -103 -33q-7 0 -13 1v46z" />
<glyph unicode="2" horiz-adv-x="533" d="M45 45q160 138 236.5 214.5t102.5 124t26 101.5q0 151 -151 151q-145 0 -160 -138h-63q6 87 68.5 139.5t161.5 52.5q96 0 152.5 -51.5t56.5 -148.5q0 -57 -27 -109t-101 -128.5t-220 -199.5h369v-53h-451v45z" />
<glyph unicode="3" horiz-adv-x="550" d="M102 182q7 -68 50.5 -103.5t118.5 -35.5q79 0 124 38.5t45 108.5q0 135 -181 135h-59v53h45q77 0 120.5 36.5t43.5 102.5q0 56 -37.5 87.5t-106.5 31.5q-138 0 -151 -131h-62q5 85 64.5 135t155.5 50q92 0 146.5 -46t54.5 -123q0 -113 -122 -161q154 -36 154 -168 q0 -90 -65.5 -146t-172.5 -56q-100 0 -160.5 50.5t-67.5 141.5h63z" />
<glyph unicode="4" horiz-adv-x="555" d="M14 139v41l354 500h67v-489h90v-52h-90v-139h-61v139h-360zM89 191h285v408z" />
<glyph unicode="5" horiz-adv-x="539" d="M99 182q9 -67 53 -103t113 -36q81 0 127 47.5t46 125.5q0 75 -43.5 116t-122.5 41q-105 0 -155 -77l-53 18l38 366h360v-53h-309l-29 -264q64 62 163 62q98 0 157 -55.5t59 -150.5q0 -101 -65.5 -165t-174.5 -64q-97 0 -159 52t-69 140h64z" />
<glyph unicode="6" horiz-adv-x="565" d="M459 215q0 73 -41 113t-115 40q-79 0 -127.5 -44.5t-48.5 -117.5q0 -71 46.5 -117t120.5 -46t119.5 47t45.5 125zM50 315q0 172 70 273.5t192 101.5q84 0 136 -43.5t60 -120.5h-61q-15 111 -140 111q-187 0 -194 -322q62 106 198 106q95 0 152.5 -55t57.5 -148 q0 -100 -64.5 -164t-168.5 -64q-114 0 -176 83t-62 242z" />
<glyph unicode="7" horiz-adv-x="482" d="M10 627v53h456v-36l-297 -644h-63l297 627h-393z" />
<glyph unicode="8" horiz-adv-x="573" d="M502 516q0 -109 -127 -161q152 -47 152 -167q0 -89 -68.5 -143.5t-178.5 -54.5q-105 0 -169.5 50.5t-64.5 135.5q0 123 147 177q-125 48 -125 154q0 80 61.5 131.5t160.5 51.5q94 0 153 -47.5t59 -126.5zM111 179q0 -61 47 -98.5t124 -37.5q80 0 130 39t50 101t-50.5 102 t-126.5 40q-78 0 -126 -41t-48 -105zM132 504q0 -54 42 -89.5t108 -35.5q67 0 112.5 37.5t45.5 96.5q0 56 -42 90t-114 34t-112 -35.5t-40 -97.5z" />
<glyph unicode="9" horiz-adv-x="565" d="M106 466q0 -73 41.5 -114.5t115.5 -41.5q78 0 126.5 44.5t48.5 117.5q0 72 -46.5 118.5t-120.5 46.5t-119.5 -46.5t-45.5 -124.5zM44 463q0 100 64.5 163.5t168.5 63.5q114 0 176 -83.5t62 -244.5q0 -171 -68.5 -271.5t-188.5 -100.5q-86 0 -140 43t-61 119h62 q14 -109 144 -109q185 0 191 323q-29 -52 -81 -80.5t-119 -28.5q-95 0 -152.5 56t-57.5 150z" />
<glyph unicode=":" horiz-adv-x="215" d="M108 -9q-20 0 -34 13.5t-14 35.5q0 20 14 34t34 14t33.5 -14t13.5 -34q0 -21 -13.5 -35t-33.5 -14zM60 459q0 20 14 34t34 14t33.5 -14t13.5 -34q0 -21 -13.5 -35t-33.5 -14t-34 14t-14 35z" />
<glyph unicode=";" horiz-adv-x="227" d="M-6 -179l104 309h58l-102 -309h-60zM75 459q0 20 14 34t34 14t34 -14t14 -34q0 -21 -13.5 -35t-34.5 -14t-34.5 14t-13.5 35z" />
<glyph unicode="&#x3c;" horiz-adv-x="412" d="M46 290v39l310 221v-69l-243 -169l243 -169v-67z" />
<glyph unicode="=" horiz-adv-x="466" d="M412 397h-358v53h358v-53zM54 178v53h358v-53h-358z" />
<glyph unicode="&#x3e;" horiz-adv-x="413" d="M57 76v69l244 169l-244 169v67l310 -214v-39z" />
<glyph unicode="?" horiz-adv-x="437" d="M221 636q-67 0 -104 -32.5t-33 -92.5h-61q-4 82 52.5 130.5t147.5 48.5q85 0 137.5 -40.5t52.5 -106.5q0 -43 -19 -76t-46.5 -55t-54.5 -43.5t-46 -54.5t-19 -77v-19h-58v24q0 40 13.5 73t33.5 52.5t43.5 40t43.5 36.5t33.5 41t13.5 55q0 46 -34 71t-96 25zM152 40 q0 21 14 34.5t34 13.5t33.5 -14t13.5 -34q0 -21 -13.5 -35t-33.5 -14q-21 0 -34.5 14t-13.5 35z" />
<glyph unicode="@" horiz-adv-x="894" d="M263 143q0 67 48 108.5t141 42.5l111 1v31q0 58 -24.5 86t-80.5 28q-54 0 -82 -22t-27 -68h-60q0 66 47 105.5t126 39.5q76 0 119 -44t43 -123v-212q0 -37 12.5 -53t39.5 -16q56 0 89.5 57t33.5 149q0 156 -96 251t-250 95q-159 0 -261 -101t-102 -258 q0 -155 99.5 -252.5t257.5 -97.5q105 0 185 40l16 -42q-93 -42 -202 -42q-180 0 -293 108t-113 281q0 178 117 294t298 116q172 0 283.5 -106.5t111.5 -277.5q0 -113 -49.5 -185t-130.5 -72t-100 83q-56 -84 -153 -84q-68 0 -111 39.5t-43 100.5zM323 146q0 -42 27 -67.5 t73 -25.5q62 0 101 38t39 98v58l-113 -1q-127 -1 -127 -100z" />
<glyph unicode="A" horiz-adv-x="604" d="M17 0l246 680h78l246 -680h-67l-68 193h-302l-68 -193h-65zM169 245h265l-133 374z" />
<glyph unicode="B" horiz-adv-x="582" d="M303 680q94 0 147.5 -44t53.5 -120q0 -57 -30 -96.5t-84 -55.5q72 -14 112.5 -58t40.5 -112q0 -85 -60 -139.5t-158 -54.5h-243v680h221zM144 53h168q79 0 123 37.5t44 104.5q0 66 -44 100.5t-127 34.5h-164v-277zM144 382h155q68 0 104.5 32.5t36.5 92.5q0 120 -153 120 h-143v-245z" />
<glyph unicode="C" horiz-adv-x="632" d="M527 479q-11 76 -60.5 117t-124.5 41q-108 0 -170 -81t-62 -217q0 -135 61.5 -215.5t167.5 -80.5q76 0 128 41.5t62 111.5h65q-18 -97 -86 -151.5t-169 -54.5q-135 0 -214.5 95.5t-79.5 250.5q0 159 82 256.5t216 97.5q102 0 170 -57t78 -154h-64z" />
<glyph unicode="D" horiz-adv-x="673" d="M305 680q154 0 238.5 -85.5t84.5 -246.5q0 -162 -85.5 -255t-239.5 -93h-221v680h223zM144 53h154q128 0 196 76.5t68 218.5q0 279 -265 279h-153v-574z" />
<glyph unicode="E" horiz-adv-x="534" d="M82 0v680h413v-53h-351v-251h261v-53h-261v-270h361v-53h-423z" />
<glyph unicode="F" horiz-adv-x="522" d="M82 0v680h410v-53h-348v-274h295v-53h-295v-300h-62z" />
<glyph unicode="G" horiz-adv-x="665" d="M376 298v52h245v-69q0 -127 -70 -209t-204 -82q-138 0 -220.5 96.5t-82.5 247.5q0 159 86.5 257.5t225.5 98.5q100 0 167 -52.5t80 -143.5h-65q-10 70 -58.5 106.5t-123.5 36.5q-116 0 -181.5 -81t-65.5 -218q0 -133 63 -214t175 -81q106 0 160 63t54 177v15h-185z" />
<glyph unicode="H" horiz-adv-x="682" d="M82 0v680h62v-302h394v302h62v-680h-62v326h-394v-326h-62z" />
<glyph unicode="I" horiz-adv-x="226" d="M82 0v680h62v-680h-62z" />
<glyph unicode="J" horiz-adv-x="325" d="M186 173v507h62v-479q0 -109 -35.5 -160.5t-122.5 -51.5q-36 0 -70 10v51q29 -9 61 -9q105 0 105 132z" />
<glyph unicode="K" horiz-adv-x="551" d="M82 0v680h62v-337l330 337h74l-332 -342l333 -338h-78l-327 327v-327h-62z" />
<glyph unicode="L" d="M82 0v680h62v-627h337v-53h-399z" />
<glyph unicode="M" horiz-adv-x="824" d="M441 22h-58l-241 550v-572h-60v680h74l258 -594l251 594h77v-680h-61v577z" />
<glyph unicode="N" horiz-adv-x="684" d="M82 0v680h71l390 -597v597h59v-680h-72l-388 593v-593h-60z" />
<glyph unicode="O" horiz-adv-x="690" d="M44 338q0 156 84.5 254t218.5 98q133 0 216 -97t83 -252q0 -156 -84.5 -253.5t-218.5 -97.5q-133 0 -216 96.5t-83 251.5zM109 341q0 -135 65 -216.5t172 -81.5q106 0 170.5 81t64.5 216q0 134 -64.5 215.5t-171.5 81.5t-171.5 -81t-64.5 -215z" />
<glyph unicode="P" horiz-adv-x="556" d="M294 680q109 0 171 -57.5t62 -157.5q0 -105 -63 -167.5t-170 -62.5h-150v-235h-62v680h212zM144 287h153q78 0 121.5 47t43.5 127t-43 123t-122 43h-153v-340z" />
<glyph unicode="Q" horiz-adv-x="690" d="M316 183h69l81 -106q55 35 85 102.5t30 158.5q0 136 -64.5 217.5t-171.5 81.5t-171.5 -81t-64.5 -216t64 -216t173 -81q38 0 69 10zM44 337q0 157 84.5 255t218.5 98q133 0 216 -97t83 -253q0 -104 -39 -184t-108 -123l81 -107h-69l-62 82q-49 -18 -106 -18 q-134 0 -216.5 96t-82.5 251z" />
<glyph unicode="R" horiz-adv-x="587" d="M299 680q101 0 158 -44.5t57 -129.5q0 -63 -33.5 -107.5t-94.5 -59.5q71 -9 108.5 -48.5t37.5 -121.5v-82q0 -58 4 -87h-66v177q0 70 -39.5 99.5t-114.5 29.5h-172v-306h-62v680h217zM144 359h140q87 0 126 39.5t39 104.5q0 68 -39 96t-123 28h-143v-268z" />
<glyph unicode="S" horiz-adv-x="551" d="M286 43q80 0 123 32.5t43 94.5q0 51 -35 82t-127 59l-43 13q-100 31 -145.5 75.5t-45.5 109.5q0 81 61 131t157 50q95 0 154.5 -50.5t64.5 -137.5h-64q-12 136 -159 136q-70 0 -111.5 -33t-41.5 -94q0 -47 34 -76.5t131 -60.5l30 -9q112 -36 157.5 -78.5t45.5 -108.5 q0 -87 -64 -137.5t-168 -50.5q-109 0 -175.5 56t-74.5 151h64q21 -154 189 -154z" />
<glyph unicode="T" horiz-adv-x="559" d="M248 0v628h-229v52h521v-52h-230v-628h-62z" />
<glyph unicode="U" horiz-adv-x="647" d="M511 243v437h60v-437q0 -124 -62.5 -188.5t-184.5 -64.5t-185 64t-63 188v438h62v-437q0 -101 45.5 -150t140.5 -49t141 49t46 150z" />
<glyph unicode="V" horiz-adv-x="606" d="M17 680h68l220 -627l218 627h64l-238 -680h-90z" />
<glyph unicode="W" horiz-adv-x="876" d="M596 0l-158 619l-148 -619h-92l-177 680h64l161 -623l149 623h85l163 -624l141 624h62l-158 -680h-92z" />
<glyph unicode="X" horiz-adv-x="575" d="M10 0l239 349l-229 331h71l197 -285l190 285h67l-219 -327l247 -353h-71l-214 307l-209 -307h-69z" />
<glyph unicode="Y" horiz-adv-x="568" d="M253 0v287l-239 393h69l205 -336l204 336h64l-241 -393v-287h-62z" />
<glyph unicode="Z" horiz-adv-x="525" d="M37 627v53h450v-45l-389 -582h404v-53h-478v43l390 584h-377z" />
<glyph unicode="[" horiz-adv-x="284" d="M83 -210v948h181v-51h-122v-846h122v-51h-181z" />
<glyph unicode="\" horiz-adv-x="431" d="M72 749l347 -880h-60l-347 880h60z" />
<glyph unicode="]" horiz-adv-x="284" d="M201 -210h-181v51h122v846h-122v51h181v-948z" />
<glyph unicode="^" horiz-adv-x="464" d="M37 411l152 269h74l164 -269h-68l-134 220l-121 -220h-67z" />
<glyph unicode="_" horiz-adv-x="444" d="M42 -116v53h360v-53h-360z" />
<glyph unicode="`" d="M284 560l-90 136h66l83 -136h-59z" />
<glyph unicode="a" horiz-adv-x="491" d="M32 142q0 69 50.5 116t147.5 48l122 1v52q0 50 -27 75t-88 25q-54 0 -87.5 -25t-29.5 -70h-61q-1 69 51.5 107.5t129.5 38.5q81 0 127 -38.5t46 -112.5v-279q0 -38 31 -38q10 0 23 7v-49q-16 -10 -39 -10q-71 0 -75 80q-43 -80 -151 -80q-71 0 -120.5 42t-49.5 110z M93 147q0 -49 32 -77.5t81 -28.5q66 0 106 40t40 109v69l-117 -1q-68 -1 -105 -30t-37 -81z" />
<glyph unicode="b" horiz-adv-x="538" d="M76 0v680h60v-264q53 94 157 94q94 0 149 -70.5t55 -188.5t-56.5 -189.5t-151.5 -71.5q-104 0 -157 102v-92h-56zM136 250q0 -96 39.5 -153.5t108.5 -57.5q68 0 108.5 56.5t40.5 154.5q0 99 -39.5 155t-108.5 56t-109 -57.5t-40 -153.5z" />
<glyph unicode="c" horiz-adv-x="485" d="M382 347q-13 110 -126 110q-71 0 -111.5 -55.5t-40.5 -152.5t40 -151.5t112 -54.5q106 0 129 107h65q-14 -74 -67 -117t-129 -43q-98 0 -155.5 70.5t-57.5 187.5q0 119 59.5 190.5t159.5 71.5q77 0 127 -43t60 -120h-65z" />
<glyph unicode="d" horiz-adv-x="537" d="M245 -10q-96 0 -150 70t-54 187q0 121 56 192t150 71q53 0 90 -22t64 -71v263h60v-680h-56v94q-53 -104 -160 -104zM105 250q0 -99 39.5 -155t108.5 -56t108.5 57t39.5 154t-39.5 154t-108.5 57q-68 0 -108 -56.5t-40 -154.5z" />
<glyph unicode="e" d="M40 242q0 118 60.5 193t158.5 75q91 0 146 -65.5t55 -175.5q0 -14 -1 -20h-357v-2q0 -98 41.5 -151t116.5 -53q113 0 136 95h62q-15 -69 -68.5 -108.5t-129.5 -39.5q-101 0 -160.5 68.5t-59.5 183.5zM105 298h290q-2 78 -38.5 118.5t-102.5 40.5q-61 0 -99.5 -42 t-49.5 -117z" />
<glyph unicode="f" horiz-adv-x="296" d="M155 521v-21h135v-48h-135v-452h-60v452h-79v48h79v27q0 78 37.5 120.5t109.5 42.5q28 0 48 -6v-50q-20 5 -41 5q-49 0 -71.5 -28t-22.5 -90z" />
<glyph unicode="g" horiz-adv-x="523" d="M451 327q0 -76 -56.5 -126.5t-140.5 -50.5h-57q-103 0 -103 -45q0 -19 19 -30.5t51 -11.5h184q161 0 161 -118q0 -76 -71.5 -120.5t-186.5 -44.5q-92 0 -149 36.5t-57 94.5q0 72 83 111q-92 14 -92 77q0 64 105 86q-84 49 -84 141q0 79 56.5 131.5t140.5 52.5 q45 0 79 -10h164v-48h-92q46 -47 46 -125zM105 -81q0 -42 41.5 -65.5t107.5 -23.5q87 0 140.5 28.5t53.5 75.5q0 42 -25.5 59t-88.5 17h-102q-61 0 -94 -23.5t-33 -67.5zM116 326q0 -58 36.5 -92.5t99.5 -34.5q65 0 102.5 36.5t37.5 97.5t-36.5 94.5t-97.5 33.5 q-65 0 -103.5 -37t-38.5 -98z" />
<glyph unicode="h" horiz-adv-x="529" d="M76 0v680h60v-254q52 84 156 84q79 0 123 -48t44 -135v-327h-61v317q0 141 -117 141q-66 0 -104 -40t-41 -111v-307h-60z" />
<glyph unicode="i" horiz-adv-x="212" d="M76 0v500h60v-500h-60zM61 638q0 19 12.5 31.5t31.5 12.5t31.5 -12.5t12.5 -31.5t-12.5 -31.5t-31.5 -12.5t-31.5 12.5t-12.5 31.5z" />
<glyph unicode="j" horiz-adv-x="212" d="M76 -86v586h60v-581q0 -139 -116 -139q-23 0 -44 6v48q20 -4 36 -4q64 0 64 84zM61 638q0 19 12.5 31.5t31.5 12.5t31.5 -12.5t12.5 -31.5t-12.5 -31.5t-31.5 -12.5t-31.5 12.5t-12.5 31.5z" />
<glyph unicode="k" horiz-adv-x="461" d="M76 0v680h60v-412l248 232h71l-251 -235l255 -265h-75l-248 256v-256h-60z" />
<glyph unicode="l" horiz-adv-x="212" d="M76 0v680h60v-680h-60z" />
<glyph unicode="m" horiz-adv-x="805" d="M76 0v500h56v-75q46 85 148 85q110 0 142 -93q46 93 158 93q74 0 114.5 -48t40.5 -135v-327h-60v317q0 141 -107 141q-59 0 -94 -38.5t-38 -107.5v-312h-61v322q0 136 -106 136q-60 0 -95 -40t-38 -111v-307h-60z" />
<glyph unicode="n" horiz-adv-x="529" d="M76 0v500h57v-76q49 86 159 86q79 0 123 -48t44 -135v-327h-61v317q0 141 -117 141q-66 0 -104 -40t-41 -111v-307h-60z" />
<glyph unicode="o" horiz-adv-x="522" d="M263 -10q-100 0 -161.5 72.5t-61.5 187.5t62 187.5t161 72.5q98 0 158.5 -71.5t60.5 -188.5t-60.5 -188.5t-158.5 -71.5zM103 250q0 -96 42 -151.5t117 -55.5q73 0 114.5 54.5t41.5 152.5t-41 152.5t-115 54.5q-75 0 -117 -55.5t-42 -151.5z" />
<glyph unicode="p" horiz-adv-x="538" d="M76 -210v710h56v-92q51 102 161 102q94 0 149 -70.5t55 -188.5t-56 -189.5t-151 -71.5q-102 0 -154 93v-293h-60zM136 250q0 -96 39.5 -153.5t108.5 -57.5q68 0 108.5 56.5t40.5 154.5q0 99 -39.5 155t-108.5 56t-109 -57.5t-40 -153.5z" />
<glyph unicode="q" horiz-adv-x="537" d="M245 -10q-95 0 -149.5 70t-54.5 188q0 120 56.5 191t149.5 71q107 0 158 -101v91h56v-710h-60v295q-55 -95 -156 -95zM105 250q0 -99 39.5 -155t108.5 -56t108.5 57t39.5 154t-39.5 154t-108.5 57q-68 0 -108 -56.5t-40 -154.5z" />
<glyph unicode="r" horiz-adv-x="315" d="M76 0v500h58v-78q45 87 139 87q11 0 21 -2v-56q-16 2 -29 2q-59 0 -93 -42t-36 -117v-294h-60z" />
<glyph unicode="s" horiz-adv-x="452" d="M231 42q60 0 92 23t32 65q0 38 -30.5 60t-106.5 41q-91 23 -130 56t-39 85q0 63 48 100.5t126 37.5q79 0 127.5 -37.5t52.5 -103.5h-61q-5 90 -124 90q-50 0 -80.5 -22t-30.5 -60q0 -33 29 -54.5t100 -39.5q100 -25 140 -58t40 -88q0 -69 -51.5 -108t-135.5 -39 q-85 0 -138 40t-61 108h60q16 -96 141 -96z" />
<glyph unicode="t" horiz-adv-x="317" d="M154 134q0 -92 82 -92q27 0 57 8v-50q-30 -10 -68 -10q-132 0 -132 138v324h-81v48h81v122h61v-122h138v-48h-138v-318z" />
<glyph unicode="u" horiz-adv-x="529" d="M131 183q0 -141 117 -141q66 0 104 40t41 111v307h60v-500h-56v79q-48 -89 -160 -89q-79 0 -123 48t-44 135v327h61v-317z" />
<glyph unicode="v" horiz-adv-x="487" d="M16 500h66l164 -451l160 451h60l-180 -500h-80z" />
<glyph unicode="w" horiz-adv-x="693" d="M85 500l118 -450l105 450h78l112 -452l107 452h59l-125 -500h-83l-109 444l-103 -444h-82l-140 500h63z" />
<glyph unicode="x" horiz-adv-x="458" d="M9 0l186 254l-178 246h71l143 -197l139 197h67l-173 -241l187 -259h-72l-151 212l-152 -212h-67z" />
<glyph unicode="y" horiz-adv-x="491" d="M9 500h67l176 -422l158 422h61l-271 -710h-60l81 213z" />
<glyph unicode="z" horiz-adv-x="440" d="M34 452v48h371v-39l-299 -413h305v-48h-381v38l300 414h-296z" />
<glyph unicode="{" horiz-adv-x="303" d="M240 -210q-155 0 -155 144q0 35 12.5 117.5t12.5 113.5q0 34 -13.5 48t-42.5 17q-7 1 -24 1v63q15 0 22 1q57 7 57 74q0 22 -12 97.5t-12 116.5q0 71 37 113t116 42h44v-51h-32q-55 0 -80 -23.5t-25 -81.5q0 -32 12 -111t12 -103q0 -41 -23.5 -69t-66.5 -34 q43 -4 66.5 -30.5t23.5 -69.5q0 -37 -11.5 -113.5t-11.5 -106.5q0 -56 24.5 -80t76.5 -24h35v-51h-42z" />
<glyph unicode="|" horiz-adv-x="224" d="M83 -131v880h58v-880h-58z" />
<glyph unicode="}" horiz-adv-x="303" d="M64 -210h-43v51h35q52 0 77 24t25 80q0 30 -12 106.5t-12 113.5q0 43 24 69.5t67 30.5q-43 6 -67 34t-24 69q0 24 12.5 103t12.5 111q0 58 -25 81.5t-80 23.5h-33v51h45q78 0 115 -42t37 -113q0 -41 -12 -116.5t-12 -97.5q0 -66 57 -74q7 -1 22 -1v-63q-17 0 -24 -1 q-28 -3 -42 -17.5t-14 -47.5q0 -31 12.5 -113.5t12.5 -117.5q0 -144 -154 -144z" />
<glyph unicode="~" horiz-adv-x="499" d="M340 313q61 0 105 64v-69q-40 -52 -108 -52q-33 0 -88 33t-82 33q-63 0 -112 -63v65q43 55 114 55q36 0 89.5 -33t81.5 -33z" />
<glyph unicode="&#xa2;" horiz-adv-x="532" d="M254 0v89q-92 10 -147 79t-55 171q0 104 55.5 173.5t146.5 81.5v86h57v-85q73 -7 121.5 -51t56.5 -114h-65q-8 54 -45.5 85t-92.5 31q-77 0 -123.5 -56t-46.5 -148q0 -91 46.5 -148t122.5 -57q56 0 94.5 30.5t46.5 81.5h65q-13 -68 -61 -110.5t-119 -50.5v-88h-57z" />
<glyph unicode="&#xa3;" horiz-adv-x="565" d="M46 304v51h69q-27 68 -27 125q0 92 60.5 151t157.5 59q89 0 147 -50t65 -137h-62q-18 134 -157 134q-67 0 -108.5 -42.5t-41.5 -111.5q0 -49 32 -128h253v-51h-231q32 -79 32 -127q0 -73 -58 -124h349v-53h-460v53q49 0 79 34t30 89q0 43 -38 128h-91z" />
<glyph unicode="&#xa5;" horiz-adv-x="573" d="M78 137v51h177v99h-177v51h146l-208 342h69l205 -337l204 337h64l-210 -342h147v-51h-178v-99h178v-51h-178v-137h-62v137h-177z" />
<glyph unicode="&#xa8;" d="M163 591q-20 0 -33.5 13.5t-13.5 34.5q0 19 14 33t33 14t32.5 -13.5t13.5 -33.5q0 -21 -13 -34.5t-33 -13.5zM275 639q0 19 13.5 33t33.5 14q19 0 32.5 -13.5t13.5 -33.5q0 -21 -13 -34.5t-33 -13.5t-33.5 13.5t-13.5 34.5z" />
<glyph unicode="&#xa9;" horiz-adv-x="805" d="M402 -10q-144 0 -246.5 102.5t-102.5 247.5q0 144 102.5 247t246.5 103q145 0 247.5 -103t102.5 -247q0 -145 -102.5 -247.5t-247.5 -102.5zM105 340q0 -124 87.5 -212.5t209.5 -88.5q123 0 210.5 88.5t87.5 212.5t-87.5 212.5t-210.5 88.5q-122 0 -209.5 -88.5 t-87.5 -212.5zM234 337q0 88 51.5 142.5t125.5 54.5q61 0 103.5 -32t49.5 -90h-57q-6 37 -32.5 56t-64.5 19q-53 0 -86.5 -41.5t-33.5 -108.5t32.5 -109.5t87.5 -42.5q36 0 64.5 18.5t34.5 54.5h57q-11 -58 -54 -89t-103 -31q-77 0 -126 53.5t-49 145.5z" />
<glyph unicode="&#xab;" horiz-adv-x="494" d="M43 253l154 201h65l-151 -201l151 -207h-65zM229 253l154 201h65l-151 -201l151 -207h-65z" />
<glyph unicode="&#xad;" horiz-adv-x="349" d="M45 274v54h259v-54h-259z" />
<glyph unicode="&#xae;" horiz-adv-x="805" d="M402 -10q-144 0 -246.5 102.5t-102.5 247.5q0 144 102.5 247t246.5 103q145 0 247.5 -103t102.5 -247q0 -145 -102.5 -247.5t-247.5 -102.5zM105 340q0 -124 87.5 -212.5t209.5 -88.5q123 0 210.5 88.5t87.5 212.5t-87.5 212.5t-210.5 88.5q-122 0 -209.5 -88.5 t-87.5 -212.5zM279 146v379h140q58 0 94 -28t36 -78q0 -43 -26 -71t-69 -37l105 -165h-59l-97 154h-71v-154h-53zM332 345h69q92 0 92 72q0 62 -81 62h-80v-134z" />
<glyph unicode="&#xb4;" d="M253 560h-59l84 136h65z" />
<glyph unicode="&#xb8;" horiz-adv-x="467" d="M227 11l45 -4l-36 -71q41 10 72.5 -9.5t31.5 -57.5q0 -36 -30 -60t-78 -24q-49 0 -77 23.5t-36 56.5h54q11 -39 62 -39q55 0 55 42q0 24 -25 32t-51 -3l-32 23z" />
<glyph unicode="&#xbb;" horiz-adv-x="494" d="M46 46l151 207l-151 201h65l154 -201l-154 -207h-65zM232 46l151 207l-151 201h65l154 -201l-154 -207h-65z" />
<glyph unicode="&#x106;" horiz-adv-x="632" d="M527 479q-11 76 -60.5 117t-124.5 41q-108 0 -170 -81t-62 -217q0 -135 61.5 -215.5t167.5 -80.5q76 0 128 41.5t62 111.5h65q-18 -97 -86 -151.5t-169 -54.5q-135 0 -214.5 95.5t-79.5 250.5q0 159 82 256.5t216 97.5q102 0 170 -57t78 -154h-64zM301 740l83 136h68 l-91 -136h-60z" />
<glyph unicode="&#x107;" horiz-adv-x="485" d="M382 347q-13 110 -126 110q-71 0 -111.5 -55.5t-40.5 -152.5t40 -151.5t112 -54.5q106 0 129 107h65q-14 -74 -67 -117t-129 -43q-98 0 -155.5 70.5t-57.5 187.5q0 119 59.5 190.5t159.5 71.5q77 0 127 -43t60 -120h-65zM215 560l84 136h65l-90 -136h-59z" />
<glyph unicode="&#x10c;" horiz-adv-x="632" d="M527 479q-11 76 -60.5 117t-124.5 41q-108 0 -170 -81t-62 -217q0 -135 61.5 -215.5t167.5 -80.5q76 0 128 41.5t62 111.5h65q-18 -97 -86 -151.5t-169 -54.5q-135 0 -214.5 95.5t-79.5 250.5q0 159 82 256.5t216 97.5q102 0 170 -57t78 -154h-64zM203 876h67l76 -88 l77 88h61l-113 -136h-52z" />
<glyph unicode="&#x10d;" horiz-adv-x="485" d="M382 347q-13 110 -126 110q-71 0 -111.5 -55.5t-40.5 -152.5t40 -151.5t112 -54.5q106 0 129 107h65q-14 -74 -67 -117t-129 -43q-98 0 -155.5 70.5t-57.5 187.5q0 119 59.5 190.5t159.5 71.5q77 0 127 -43t60 -120h-65zM126 696h66l68 -87l69 87h62l-105 -136h-52z" />
<glyph unicode="&#x110;" horiz-adv-x="697" d="M30 316v53h76v311h223q154 0 238.5 -85.5t84.5 -246.5q0 -162 -85.5 -255t-239.5 -93h-221v316h-76zM168 53h154q128 0 196 76.5t68 218.5q0 279 -265 279h-153v-258h190v-53h-190v-263z" />
<glyph unicode="&#x111;" horiz-adv-x="537" d="M258 564v47h143v69h60v-69h63v-47h-63v-564h-56v94q-53 -104 -160 -104q-96 0 -150 70t-54 187q0 121 56 192t150 71q53 0 90 -22t64 -71v147h-143zM105 250q0 -99 39.5 -155t108.5 -56t108.5 57t39.5 154t-39.5 154t-108.5 57q-68 0 -108 -56.5t-40 -154.5z" />
<glyph unicode="&#x160;" horiz-adv-x="551" d="M286 43q80 0 123 32.5t43 94.5q0 51 -35 82t-127 59l-43 13q-100 31 -145.5 75.5t-45.5 109.5q0 81 61 131t157 50q95 0 154.5 -50.5t64.5 -137.5h-64q-12 136 -159 136q-70 0 -111.5 -33t-41.5 -94q0 -47 34 -76.5t131 -60.5l30 -9q112 -36 157.5 -78.5t45.5 -108.5 q0 -87 -64 -137.5t-168 -50.5q-109 0 -175.5 56t-74.5 151h64q21 -154 189 -154zM132 876h67l76 -88l77 88h61l-113 -136h-52z" />
<glyph unicode="&#x161;" horiz-adv-x="452" d="M231 42q60 0 92 23t32 65q0 38 -30.5 60t-106.5 41q-91 23 -130 56t-39 85q0 63 48 100.5t126 37.5q79 0 127.5 -37.5t52.5 -103.5h-61q-5 90 -124 90q-50 0 -80.5 -22t-30.5 -60q0 -33 29 -54.5t100 -39.5q100 -25 140 -58t40 -88q0 -69 -51.5 -108t-135.5 -39 q-85 0 -138 40t-61 108h60q16 -96 141 -96zM91 696h66l68 -87l69 87h62l-105 -136h-52z" />
<glyph unicode="&#x17d;" horiz-adv-x="525" d="M37 627v53h450v-45l-389 -582h404v-53h-478v43l390 584h-377zM128 876h67l76 -88l77 88h61l-113 -136h-52z" />
<glyph unicode="&#x17e;" horiz-adv-x="440" d="M34 452v48h371v-39l-299 -413h305v-48h-381v38l300 414h-296zM96 696h66l68 -87l69 87h62l-105 -136h-52z" />
<glyph unicode="&#x18f;" horiz-adv-x="664" d="M114 196q11 -72 65 -112.5t134 -40.5q113 0 176.5 80t63.5 218v7h-513q0 153 81 247.5t210 94.5q131 0 209.5 -95.5t78.5 -249.5q0 -160 -84.5 -257.5t-223.5 -97.5q-105 0 -176.5 55.5t-85.5 150.5h65zM106 399h444q-13 111 -71.5 174.5t-152.5 63.5q-92 0 -149.5 -61.5 t-70.5 -176.5z" />
<glyph unicode="&#x192;" horiz-adv-x="393" d="M189 525q8 88 40 126.5t100 38.5q18 0 43 -5v-51q-18 6 -40 6q-41 0 -60 -24.5t-23 -77.5l-15 -180h112v-51h-116l-31 -372q-7 -81 -37 -118t-93 -37q-34 0 -52 7v50q20 -7 47 -7q37 0 53.5 23t21.5 77l32 377h-103v51h107z" />
<glyph unicode="&#x1d3;" horiz-adv-x="647" d="M511 243v437h60v-437q0 -124 -62.5 -188.5t-184.5 -64.5t-185 64t-63 188v438h62v-437q0 -101 45.5 -150t140.5 -49t141 49t46 150zM183 876h67l76 -88l77 88h61l-113 -136h-52z" />
<glyph unicode="&#x1d4;" horiz-adv-x="529" d="M131 183q0 -141 117 -141q66 0 104 40t41 111v307h60v-500h-56v79q-48 -89 -160 -89q-79 0 -123 48t-44 135v327h61v-317zM130 696h66l68 -87l69 87h62l-105 -136h-52z" />
<glyph unicode="&#x1e2;" horiz-adv-x="873" d="M421 0v193h-257l-112 -193h-70l404 680h448v-53h-351v-251h261v-53h-261v-270h361v-53h-423zM194 245h227v385zM474 779v52h274v-52h-274z" />
<glyph unicode="&#x1e3;" horiz-adv-x="818" d="M31 138q0 73 49.5 116t147.5 43h130v32q0 64 -28 95.5t-90 31.5q-54 0 -85 -23.5t-30 -67.5h-61q1 65 50.5 105t125.5 40q124 0 162 -101q28 48 74 74.5t104 26.5q91 0 144.5 -64.5t53.5 -175.5q0 -14 -1 -21h-358v-8q1 -96 42 -147t116 -51q113 0 137 95h61 q-15 -69 -68.5 -108.5t-130.5 -39.5q-132 0 -187 119q-51 -119 -191 -119q-74 0 -120.5 42t-46.5 106zM93 142q0 -42 30.5 -71.5t78.5 -29.5q72 0 114 40.5t42 110.5v59h-126q-139 0 -139 -109zM282 612v53h237v-53h-237zM423 298h290q-6 159 -140 159q-62 0 -100 -40.5 t-50 -118.5z" />
<glyph unicode="&#x1fc;" horiz-adv-x="873" d="M421 0v193h-257l-112 -193h-70l404 680h448v-53h-351v-251h261v-53h-261v-270h361v-53h-423zM194 245h227v385zM570 740l83 136h68l-91 -136h-60z" />
<glyph unicode="&#x1fd;" horiz-adv-x="818" d="M31 138q0 73 49.5 116t147.5 43h130v32q0 64 -28 95.5t-90 31.5q-54 0 -85 -23.5t-30 -67.5h-61q1 65 50.5 105t125.5 40q124 0 162 -101q28 48 74 74.5t104 26.5q91 0 144.5 -64.5t53.5 -175.5q0 -14 -1 -21h-358v-8q1 -96 42 -147t116 -51q113 0 137 95h61 q-15 -69 -68.5 -108.5t-130.5 -39.5q-132 0 -187 119q-51 -119 -191 -119q-74 0 -120.5 42t-46.5 106zM93 142q0 -42 30.5 -71.5t78.5 -29.5q72 0 114 40.5t42 110.5v59h-126q-139 0 -139 -109zM363 560l84 136h65l-90 -136h-59zM423 298h290q-6 159 -140 159 q-62 0 -100 -40.5t-50 -118.5z" />
<glyph unicode="&#x1fe;" horiz-adv-x="690" d="M553 720h64l-70 -110q99 -97 99 -269q0 -156 -84.5 -253.5t-218.5 -97.5q-89 0 -160 47l-49 -78h-63l71 112q-98 96 -98 267q0 156 84.5 254t218.5 98q89 0 158 -46zM109 341q0 -136 66 -218l300 473q-55 41 -130 41q-107 0 -171.5 -81t-64.5 -215zM214 85 q58 -42 132 -42q106 0 170.5 81t64.5 216q0 137 -67 218zM305 740l83 136h68l-91 -136h-60z" />
<glyph unicode="&#x1ff;" horiz-adv-x="524" d="M413 545h58l-59 -95q71 -73 71 -200q0 -117 -60.5 -188.5t-158.5 -71.5q-65 0 -115 32l-38 -63h-58l58 94q-70 73 -70 197q0 115 62 187.5t161 72.5q62 0 109 -29zM104 250q0 -93 38 -146l203 330q-35 23 -82 23q-75 0 -117 -55.5t-42 -151.5zM178 68q36 -25 85 -25 q73 0 114.5 54.5t41.5 152.5q0 95 -38 148zM228 560l84 136h65l-90 -136h-59z" />
<glyph unicode="&#x218;" horiz-adv-x="551" d="M286 43q80 0 123 32.5t43 94.5q0 51 -35 82t-127 59l-43 13q-100 31 -145.5 75.5t-45.5 109.5q0 81 61 131t157 50q95 0 154.5 -50.5t64.5 -137.5h-64q-12 136 -159 136q-70 0 -111.5 -33t-41.5 -94q0 -47 34 -76.5t131 -60.5l30 -9q112 -36 157.5 -78.5t45.5 -108.5 q0 -87 -64 -137.5t-168 -50.5q-109 0 -175.5 56t-74.5 151h64q21 -154 189 -154zM192 -209l63 139h63l-68 -139h-58z" />
<glyph unicode="&#x219;" horiz-adv-x="452" d="M231 42q60 0 92 23t32 65q0 38 -30.5 60t-106.5 41q-91 23 -130 56t-39 85q0 63 48 100.5t126 37.5q79 0 127.5 -37.5t52.5 -103.5h-61q-5 90 -124 90q-50 0 -80.5 -22t-30.5 -60q0 -33 29 -54.5t100 -39.5q100 -25 140 -58t40 -88q0 -69 -51.5 -108t-135.5 -39 q-85 0 -138 40t-61 108h60q16 -96 141 -96zM139 -203l63 139h63l-68 -139h-58z" />
<glyph unicode="&#x21a;" horiz-adv-x="559" d="M248 0v628h-229v52h521v-52h-230v-628h-62zM187 -209l63 139h63l-68 -139h-58z" />
<glyph unicode="&#x21b;" horiz-adv-x="317" d="M154 134q0 -92 82 -92q27 0 57 8v-50q-30 -10 -68 -10q-132 0 -132 138v324h-81v48h81v122h61v-122h138v-48h-138v-318zM109 -203l63 139h63l-68 -139h-58z" />
<glyph unicode="&#x2c6;" d="M228 696h52l108 -136h-66l-68 88l-69 -88h-62z" />
<glyph unicode="&#x2da;" horiz-adv-x="418" d="M211 570q-47 0 -79.5 32.5t-32.5 77.5q0 46 33 78t79 32q47 0 79.5 -32t32.5 -78q0 -45 -32.5 -77.5t-79.5 -32.5zM145 680q0 -29 19.5 -48t46.5 -19q29 0 47 18.5t18 48.5t-18 48.5t-47 18.5q-28 0 -47 -19t-19 -48z" />
<glyph unicode="&#x2dc;" horiz-adv-x="603" d="M345 634q34 0 34 61h48q-1 -55 -22.5 -83.5t-60.5 -28.5q-30 0 -63.5 30.5t-52.5 30.5q-42 0 -42 -60h-48q2 61 28.5 86t61.5 25q30 0 63.5 -30.5t53.5 -30.5z" />
<glyph unicode="&#x2000;" horiz-adv-x="438" />
<glyph unicode="&#x2001;" horiz-adv-x="876" />
<glyph unicode="&#x2002;" horiz-adv-x="438" />
<glyph unicode="&#x2003;" horiz-adv-x="876" />
<glyph unicode="&#x2004;" horiz-adv-x="292" />
<glyph unicode="&#x2005;" horiz-adv-x="219" />
<glyph unicode="&#x2006;" horiz-adv-x="146" />
<glyph unicode="&#x2007;" horiz-adv-x="146" />
<glyph unicode="&#x2008;" horiz-adv-x="109" />
<glyph unicode="&#x2009;" horiz-adv-x="175" />
<glyph unicode="&#x200a;" horiz-adv-x="48" />
<glyph unicode="&#x2010;" horiz-adv-x="349" d="M45 274v54h259v-54h-259z" />
<glyph unicode="&#x2011;" horiz-adv-x="349" d="M45 274v54h259v-54h-259z" />
<glyph unicode="&#x2012;" horiz-adv-x="349" d="M45 274v54h259v-54h-259z" />
<glyph unicode="&#x2013;" horiz-adv-x="553" d="M45 279v52h463v-52h-463z" />
<glyph unicode="&#x2014;" horiz-adv-x="744" d="M45 279v52h654v-52h-654z" />
<glyph unicode="&#x2018;" horiz-adv-x="222" d="M203 741l-108 -279h-64l110 279h62z" />
<glyph unicode="&#x2019;" horiz-adv-x="221" d="M31 462l108 279h64l-110 -279h-62z" />
<glyph unicode="&#x201a;" horiz-adv-x="204" d="M-21 -158l107 279h65l-110 -279h-62z" />
<glyph unicode="&#x201c;" horiz-adv-x="411" d="M203 741l-108 -279h-64l110 279h62zM219 462l110 279h63l-108 -279h-65z" />
<glyph unicode="&#x201d;" horiz-adv-x="410" d="M219 462l108 279h65l-110 -279h-63zM31 462l108 279h64l-110 -279h-62z" />
<glyph unicode="&#x201e;" horiz-adv-x="393" d="M167 -158l108 279h65l-110 -279h-63zM-21 -158l108 279h64l-110 -279h-62z" />
<glyph unicode="&#x2026;" horiz-adv-x="595" d="M99 -9q-21 0 -34.5 13.5t-13.5 35.5q0 20 14 34t34 14t33.5 -14t13.5 -34q0 -21 -13.5 -35t-33.5 -14zM249 40q0 20 14 34t34 14t34 -14t14 -34q0 -22 -13.5 -35.5t-34.5 -13.5t-34.5 13.5t-13.5 35.5zM448 40q0 20 14 34t34 14t34 -14t14 -34q0 -22 -14 -35.5t-34 -13.5 t-34 13.5t-14 35.5z" />
<glyph unicode="&#x202f;" horiz-adv-x="175" />
<glyph unicode="&#x2039;" horiz-adv-x="308" d="M43 253l154 201h65l-151 -201l151 -207h-65z" />
<glyph unicode="&#x203a;" horiz-adv-x="308" d="M46 46l151 207l-151 201h65l154 -201l-154 -207h-65z" />
<glyph unicode="&#x205f;" horiz-adv-x="219" />
<glyph unicode="&#x20ac;" horiz-adv-x="711" d="M600 484q-13 74 -60 113.5t-120 39.5q-85 0 -142 -54t-76 -149h249v-51h-256q-2 -28 -2 -44q0 -29 3 -54h255v-50h-247q20 -91 75.5 -141.5t137.5 -50.5q74 0 124 40t61 108h64q-19 -94 -85.5 -147.5t-164.5 -53.5q-109 0 -182 65.5t-96 179.5h-86v50h78q-2 32 -2 51 q0 17 2 47h-78v51h85q23 119 98.5 187.5t185.5 68.5q99 0 164.5 -55.5t77.5 -150.5h-63z" />
<glyph unicode="&#x2122;" horiz-adv-x="855" d="M607 321h-45l-128 280v-291h-53v370h71l132 -294l131 294h72v-370h-53v295zM20 634v46h304v-46h-125v-324h-54v324h-125z" />
<glyph unicode="&#x25fc;" d="M0 500h500v-500h-500v500z" />
</font>
</defs>
</svg>
