<?xml version="1.0" encoding="utf-8"?>
<!-- Generator: Adobe Illustrator 24.1.2, SVG Export Plug-In . SVG Version: 6.00 Build 0)  -->
<svg version="1.1" id="Layer_1" xmlns="http://www.w3.org/2000/svg" xmlns:xlink="http://www.w3.org/1999/xlink" x="0px" y="0px"
	 width="1229.3px" height="1239.3px" viewBox="0 0 1229.3 1239.3" style="enable-background:new 0 0 1229.3 1239.3;"
	 xml:space="preserve">
<style type="text/css">
	.st0{clip-path:url(#SVGID_2_);fill:#C1272D;}
</style>
<g>
	<defs>
		<rect id="SVGID_1_" y="0" width="1229.3" height="1239.3"/>
	</defs>
	<clipPath id="SVGID_2_">
		<use xlink:href="#SVGID_1_"  style="overflow:visible;"/>
	</clipPath>
	<path class="st0" d="M1206.4,863.9c-0.8-1.6-1.9-2.8-3.1-3.4c-1.2-0.6-2.7-0.5-4.4,0.3c-3.4,1.6-7.9,6.1-13.8,14.5
		c-0.2,2.5-0.4,5.1-0.7,7.8c-0.1,1.4-0.2,2.8-0.4,4.1c-0.2,1.4-0.3,2.8-0.5,4.1l-2,3.3c-10.3-4-20.5-8.1-31.4-12.6
		c-1.1,4.3-2,8-2.8,11.3c-0.9,3.4-1.6,6.5-2.5,9.6c-3.3,1.4-5.4,1.5-5.3-1.1c0-0.7,0.2-1.5,0.5-2.5c0.3-1,0.8-2.2,1.3-3.7
		c1.1-2.9,2.9-6.6,5.4-11.4c-2.6,3.3-4.6,5.8-6.2,7.9c-1.7,2.1-2.9,3.7-4.3,5.3c-0.9-0.8-1.1-2-0.9-3.7c0.2-1.7,0.8-3.7,1.6-5.9
		c1.6-4.5,4.1-9.8,5.5-14.5c0.9,1,1.5,1.7,2.1,2.3c1.6-3.3,3-5.9,4.9-10.3c0.1,4.3,0.1,7.2,0,10.2l2-1.9c0.2-0.9,0.5-1.8,0.8-2.8
		c0.2-1,0.5-2,0.7-2.9c0.4-1.9,0.8-3.7,0.8-4.9c-0.2-7.7-1-14.4-1.5-21.5c-0.1-1.7-0.3-3.3-0.6-4.6c-0.3-1.3-0.5-2.4-0.9-3.3
		c-0.7-1.7-1.5-2.6-2.7-2.6c-2.3,0.1-5.5,3.7-11.3,10.8c0.9-4.1,1.8-7.7,2.4-11.4c0.5-2.5,1.4-5.5,1.6-7.6c0.5-6,1.1-11.1,5.9-13.8
		c0.8-0.4,2.2-2.8,2.9-4.6c0.3-0.8,0-3.9-0.2-3.7c-4.7,6-4.8-1.7-7.4-1.7c-4.1-0.1-8.4,0.4-12.2-0.5c-1.5-0.3-2.8-2.4-2.8-5.5
		c0-1.9,2.8-7.3,4.4-11.2l2.2-2.5c-0.5-5.4-1.4-10.8-2-14.5c-3.3,2-5.4,3.4-7.6,4.7c0.7-4,1.5-8.1,2.5-13.9
		c-5.1,6.7-11.4,19.6-13.7,9.6c1.3-8.5,2.8-17.4,2.4-23.9c-0.6-5.8-2.7-9.4-4.7-12.7c-0.7-1.1-2.7,0.4-4,2.1
		c-3.5,4.8-8.4,5-10.9,1.2c9.3-37.9,14.3-77.6,14.3-118.4c0-19.3-1.1-38.3-3.3-57c0.8-2.3,1-6.5,0.9-13.2c0-1.6,0.1-3.2,0.2-4.7
		c0.2-1.5,0.3-3,0.5-4.4c0.4-2.8,1.1-5.4,1.8-7.4c0.5-1.4,4,3.8,6.1,6.5c2.2,2.7,4.2,5.8,6.1,9.1c0.9,1.5,1.9,3.4,2.4,5.6
		c1.9,8.2,3.4,7.3,4.4,2.2c1.7-9,3.3-2.1,5.6,3.3c-1.6,3.7-2.5,7.1-4.1,8.8c-1.4,1.6-3.2,1.4-5.1,2c6.2,15.9,10.7,18.2,15.8,8.5
		c2.6-5,4-18,9.5-5.7c-0.7-4.9-1.4-8.8-2.5-12c-1-3.2-2-5.6-3-7.3c-2.1-3.4-4.6-4.2-7.7-3.2c-1.4,0.4-3.2-2.2-4.8-3.9
		c-0.3-0.3-0.7-4.8-0.5-5c1.3-1,2.6-1.7,4-2.1c2.7-0.8,6.1,0.8,8-2.4c4-6.5,8.3-9.9,14.3-6.2c1.7,1.1,4.1,0.7,4.7-2.2
		c1.9-9.1,5.2-0.4,8.2,3.8c0.7,0.9,1.3,5.4,1.2,7.5c-0.1,2.2-0.8,4.6-1.5,4.7c-2.6,0.4-2.2,4.6-0.5,9.8c0.9,2.9,2.2,5,3.6,8.1
		c0-0.4,0-0.7,0.1-1.1l0.3,1.2c-0.1-0.4-0.2-0.8-0.3-1.2c1-13.7,5-6.8,8.5-4.4c1.2,0.8,2.3-0.1,3.5-0.3c-1-3.4-1.8-7-2.9-10.2
		c-0.7-1.9-1.6-3.2-2.4-4.8c0.1-4.1,0.3-7.7,0.3-12.4c0-0.2,0.1-0.4,0.2-0.7l-0.2,0.6c0-0.6,0-1.1,0-1.7c-1,0.8-1.4,0.9-1.8,1.5
		c-0.5,0.8-0.8,1.9-1.2,3c-2.8-8.5-4.1-16-2.6-18c1-1.3,3.4,0.1,4.8,2.8c2.9,5.4,5,6.4,5.2-0.2c0.1-3.7-1.4-11.5-3.1-15.3
		c-2.1-5-4.4-9.6-6.8-14.4c-1.2-2.4-2.4-4.8-3.7-7.3c-0.6-1.2-1.3-2.5-2-3.8c-0.7-1.3-1.4-2.6-2.2-4c1.7-0.3,2.8-2.1,3.9-0.5
		c4.5,6.2,6.3,2.6,8.5-0.1c1-1.2,2.2-1.8,3.3-2.6l0.8,3.8c0.3,1.4,0.5,2.8,0.7,4.2l1.4,8.5c1.4-0.8,1.5-3.5,1.9-5.5
		c0.4-1.9,0.8-4.7,1.2-6.9c0.5-2.2,0.9-3.8,1.8-3.5c5.2,1.9,5.9-6.7,7.5-13.3c0.6-2.3,0.2-7,1.2-7.9c2.7-2.4,5.8-3.6,8.9-4.7
		c1.4-0.5,1.6-4.8,2.2-7.7c0.3-1.4,0.8-2.5,1.5-2.5c0.8,0,1.9,1,3.7,3.7c0.4,0.6,1.2-0.6,1-1.7c-0.1-0.9-0.2-1.9-0.4-2.8
		c-0.2-0.9-0.3-1.9-0.5-2.8c-0.3-1.9-0.6-3.8-1-5.7c-0.7-3.8-1.5-7.5-2.8-11c-1-2.9-2.6-5.6-4.2-8.1c-0.4-0.6-0.8-1.3-1.3-1.9
		c-0.5-0.6-0.9-1.2-1.4-1.8c-0.9-1.2-1.8-2.4-2.7-3.6c-3.7-5.1-7.5-8.5-10.9-14.5c-1.4-2.4-2.6-4.4-3.7-5.8c-1.2-1.4-2.2-2.4-3.1-3
		c-1.8-1.2-3.1-0.8-4.1,0.8c-0.7,1.1-1.3,2.3-2.3,4.1c-1.7-7.5-2.6-11.3-4.1-14.7c-0.7-1.7-1.6-3.3-2.8-5.2c-1.2-1.9-2.7-4.1-4.9-7
		c-1.8-2.4-3.7-5.9-5.5-8.7c-1.7-2.6-3.4-5.6-5.2-8.6c-1.8-3-3.4-6.1-5.3-8.7c-3.7-5.2-7.3-9-10.5-8.1c-0.5,0.1-2.9-3.3-4.3-4.8
		c-2.4-2.5-4.7-5.1-7.1-7c-6-4.9-11.7-8.4-17.8-14.4c-3.1-3.3-9.2-11.4-11-15.5c-2-4.6-2.5-10.5-0.4-10.1c3.8,0.7,5.6-0.2,5.3-3.2
		c-0.2-1.5-0.9-3.5-2.1-6c-1.3-2.6-3.3-5.6-5.9-9.3c-2.6-3.7-5.1-7.4-7.5-11.2c-1.2-1.9-2.4-3.8-3.7-5.6c-1.3-1.8-2.7-3.6-4.1-5.4
		c-3.8-4.9-8.4-9.6-12.6-14.3c0.3,2.9,0.1,5.2,1.1,8.6c1.5,4.9,3.9,10.4,5.8,15.6l-12-13.2c-2.1-2.2-4.1-4.6-6.3-6.8l-6.5-6.6
		c-2.9-2.9-6.4-7.6-8.3-8.8c-1.8-1.1-3.3-2.2-4.6-3.3c-1.4-1.1-2.5-2.2-3.5-3.3c-2-2.2-3.4-4.5-4.9-6.8c-2.9-2.1-5.8-4.3-8.6-6.6
		c-1.4-1.1-2.8-2.3-4.2-3.4c-1.5-1.1-2.9-2.2-4.4-3.2c-2.3-1.7-4.9-3.6-6.9-4.5c-2.5-1.2-5-2.4-7.5-3.7c-1.2-0.6-2.5-1.3-3.7-2
		c-0.6-0.4-1.2-0.7-1.9-1.1c-0.6-0.4-1.3-0.7-1.9-1.1c-5.2-3-10.5-6.9-16.1-12.5c-1.3-1.3-4.2-3.4-5.1-3.6
		c-4.6-0.9-9.5-3.5-14.5-6.7c-5-3.1-9.9-7-15.1-9.9c-17.3-10.3-17.9-11-9.1-12.5c2.6-0.4,5.6-1.3-2.8-6.1c-2.4-1.4-4.5-2.6-6.1-3.8
		c-1.7-1.2-3-2.3-4.1-3.3c-2.2-2.1-3.6-4.2-5.2-6.3c-2.8-3.5-4.9-5.7-7.4-7.2c-2.5-1.5-5.6-2.2-10.3-2.9c-3.8-0.5-5.4,0.8-9,0.6
		c-2.6-0.2-8.7-1.7-9.8-2.6c-1.6-1.3-3.5-2.6-5.3-3.9c-1.8-1.3-3.6-2.6-5.3-3.8c-3.4-2.5-6.3-4.9-7.8-7c-1.7-2.3-3.9-4.5-6.4-6.4
		c-2.5-1.9-5.3-3.5-8.3-4.8c-6-2.7-12.8-4.2-19.2-3.9c-9.7,0.7-16.5-1.3-25.1-7.5c-0.5-0.4-1.3-0.8-2-1.1c-2.1-1.2-4.3-2.1-6.4-3.1
		l-6.5-3.1c-4.3-2-8.7-4-13.1-6.1l-3.3-1.5l-3.3-1.4c-2.2-0.9-4.5-1.8-6.7-2.7c-4.5-1.8-9-3.6-13.6-5.4c-1.3-0.5-3.4-1.1-5.4-1.5
		c-2-0.3-3.9-0.5-4.6-0.4c-5.7,1-12.5,0.5-19.6-0.4c-1.8-0.2-3.6-0.5-5.4-0.7c-1.8-0.2-3.6-0.4-5.4-0.6c-3.6-0.4-7.2-0.7-10.6-0.8
		c-3-0.1-6.8-0.6-10.4-1.2c-1.8-0.3-3.6-0.7-5.2-1.1c-1.6-0.3-3.1-0.7-4.3-1.1c-5.1-1.6-10.3-2.9-15.5-3.8c-5.2-1-10.4-1.7-15.5-1.7
		c-5.1-0.1-10.2,0.1-15.3,0.6c-2.5,0.3-5,0.6-7.4,1c-1.2,0.2-2.4,0.4-3.6,0.7c-1.2,0.3-2.4,0.6-3.6,1c-7,2-13.4,2.8-19.8,2.9
		c-1.6,0-3.2,0-4.8,0c-0.8,0-1.6-0.1-2.4-0.1c-0.8,0-1.6,0-2.4-0.1c-3.2-0.1-6.5-0.3-9.9-0.6c-3.5-0.3-7.3-0.3-11.1-0.1
		c-3.8,0.2-7.7,0.6-11.4,1.4c-7.5,1.5-14.4,3.7-19.3,6.2c-2.6,1.3-4.6,2.6-6.1,3.8c-1.5,1.3-2.5,2.6-3.3,3.8c-1.5,2.5-2,4.8-2.8,7.3
		c-0.4,1.3-6.8,3.9-13.8,6.2c-7,2.1-14.5,4.5-17.4,4.3c-1.7-0.1-2.3-1.2-1.9-2.1c2.2-4.4,5.7-9,7.3-13.3c0.6-1.5-2.7-2.4-5.4-3.1
		c-0.6-0.1-6.2,1.8-9.5,2.9c-2.4,0.8-5.4,2.3-6.9,2.4c-5.7,0.2-11.2,1-16.6,2.3c-5.4,1.3-10.8,3.3-16,6.3c-0.3,0.2-1.1,0.3-2,0.4
		c-0.9,0.2-2,0.3-2.8,0.6c-7.2,2.3-14.5,4.5-21.4,7.2c-1.9,0.8-3.2,3.3-3.1,4.5c0.1,0.7,3.3,0.5,4.6,0.6c-1.3,1.4-2.3,2.7-3.3,4
		c-1,1.3-2.1,2.5-3.8,3.8c-10.8,8.1-11.9,12,3.6,9.8c2.7-0.4,3.2,1.2,4.8,1.9c-4.1,1.8-8.2,3.9-12.4,5.5c-4,1.5-8.2,2.8-12.3,4.2
		c-4,1.5-8,3.1-11.4,5c-5.8,3.2-9.7,4.6-13,5.2c-1.7,0.2-3.1,0.3-4.6,0.3c-1.5-0.1-2.9-0.3-4.5-0.5c2.2-1,4-1.8,5.5-2.4
		c1.5-0.6,2.8-1.1,4.1-1.7c3.8-1.7,9.7-4,10.7-5.2c1.6-1.8,1.2-4.5-0.8-4c-9,1.9-10.6-0.3-12.6-2.6c-0.5-0.6-5.3,0.8-8.1,1.4
		c-0.5,1.3-1.3,2.8-1.3,4c0,0.8,1,1.1,1.6,1.7l-1.7,1.8c-5.2,0-12.2,3.1-19.1,6.2c-3.5,1.5-6.9,3.3-10.2,4.6c-3.2,1.3-6.3,2.2-9,2.3
		c-0.6,0-2.9,1.3-5.5,2.9c-2.5,1.6-5.2,3.4-6.4,4.7c-4.2,4.3-9,8.1-14.1,11.3c-2.5,1.6-5.1,3-7.6,4.4c-2.4,1.4-4.8,2.7-7.1,3.8
		c-9.5,4.8-14.8,7.7-17.5,10.2c-2.6,2.6-2.5,4.8-1.2,8.2c0.4,1-2.2,5.2-2.4,5.3c-3.6,2-7.3,4.1-10.8,6.1c-1.8,1-3.5,1.9-5.3,2.8
		c-1.7,0.9-3.3,1.8-4.9,2.5c-1.5,0.7,1-4.9,0.6-6.9c-0.5-2.4-1.7-4.4-3.5-5.8c-0.4-0.3-6.9,4.3-7.1,4.9c-1.7,3.3-2.3,6-3.2,8.8
		c-0.1,0.4,0.5,0.5,0.2,0.9c-2.1,3.1-4.9,8-6.3,8.9c-6.8,4.5-13.2,8.1-19.8,12c-0.1,0,0.9-2,1.2-2.9c0.5-1.5,0.9-3,1.4-4.7
		c-5.5,4.6-8.3,7-9.5,10.5c-1.2,3.5-0.8,8.4,0.2,17.7c-4.8,1.8-8.3,3.1-9.8,3.6c-1.7,1.7-3.4,3.3-4.9,4.9c-1.5,1.6-2.9,3.2-4.3,4.6
		c-2.7,2.9-5.1,5.4-7.3,7.1c-6.5,5.1-7.4,2.4-5.7-3.3c0.3-1.1-6.2,2.1-6.8,3c-1.2,1.7-2.3,3.3-3.4,5c-1,1.7-2,3.4-3,5.1
		c-1.9,3.4-3.8,6.8-5.7,10.1c-3.7,0.7-5.9,1.3-8.2,3.4c-2.4,2-4.8,5.6-8.8,12c1,0.2,3.1-0.7,2.8,0.7c-1.5,6.7,0,7.1,2.9,4.9
		c1.4-1.1,3.1-2.9,5-5c1.9-2,3.8-4.3,5.8-6.2c5.4-5.3,10.6-10.1,9.4-3.1c-0.8,4.6,1.2,6.6,0.7,10.9c-0.4,2.4-2.8,8.4-5.1,11.3
		c-2.8,3.7-5.8,7.1-8.8,10.5c-1.5,1.7-3,3.4-4.5,5.1c-1.4,1.8-2.8,3.5-4.3,5.3c-2.8,3.5-5.5,7.1-8.2,10.6c-0.5-0.6-0.2-0.3,0,0
		c0,0,0,0,0,0c0.5,1.6,0,3.5-1.1,5.5c-1.1,2-2.7,4.2-4.6,6.3c-4.3,4.8-8.7,9.2-12.8,13.6c-1.2,3.5-1.8,6.3-1.5,7.8
		c0.2,1.5,1.3,1.6,3.7-0.3c1.2-0.9,1.8,1.1,2.1,2.5c0.1,0.4-1.5,4.1-2.3,5.1c-2.6,3.2-5.2,6.3-7.8,9.4c-2.6,3.1-5.3,6.2-7.7,9.4
		c-1.6-6.5-1.9-5.6-8.5-2.7c-3.8,1.7-8.7,5.2-8.2-3.9c0.4-6.9-7.5-5.2-11.4,1.7c-2,3.6-3.9,7.5-5.8,11.5c-0.9,2-1.9,4-2.7,6
		c-0.8,2-1.7,4.1-2.5,6.1l0,2.4c3.8-6.4,6-8.8,7.1-8.2c1,0.6,0.9,4.3,0,10.1c1.3-1.8,2.5-3.7,3.7-5.4c0.6-0.8,1.1-1.6,1.6-2.2
		c0.5-0.6,1-1.1,1.4-1.4c2-1.4,4.2-1.9,4.5,0.1c0.1,0.7-0.6,2.7-1.3,5.1c-0.8,2.3-1.8,5-2.6,6.8c-1.9,4-3.8,7.9-5.8,11.7
		c-1,1.9-2,3.9-2.9,5.8c-1,2-1.8,4-2.6,6.1c-4.7,11.5-11,20.3-14.6,20.6l0.5-5.3c-0.5,1.5-1,2.9-1.4,4.3c-0.1,0.3-0.1,0.5-0.2,0.7
		c-0.3-0.2-0.6-0.4-0.8-0.8c-0.3,6.7-0.4,13.3-0.6,19.1c2.9-2.5,5.4-5.3,7.4-6.1c3.1-1.1,6-1.3,8.6-0.7c1.2,0.3,2.4,2.6,2.3,5.6
		c-0.1,2.5-1.9,8.8-3.3,11.3c-1.2,2.2-2.3,4.3-3.2,6.2c-0.9,1.9-1.6,3.7-2.3,5.4c-1.3,3.4-2.3,6.4-2.9,9.4
		c-1.2,6.1-1.4,12.3-0.2,21.9c-2.8,4.1-3.5,8.3-3.6,12.5c-0.1,4.2,0.3,8.5,0.1,13.1c1.8-4.4,3.4-9.6,5.1-13.9
		c1.6-4,3.2-14.7,5.2-9.3c0.6,1.6-1.3,10.3-2.2,15.8c-0.2,1.1-1,2.3-1.1,3.3c-0.2,3-0.2,6-0.3,9c1.1-1,2.4-1,3.1-3.1
		c0.7-2,1.3-3.9,2-5.9c0.7-2,1.5-4,2.2-6c1.5-4,2.9-8.2,4.2-12.5c2.3-8.4,4.9-17.5,7.7-26.1c0.9-2.9,2.2-5.6,3.4-7.4
		c0.4-0.6,1.3,1.7,1.2,3.5c-0.2,2.6-0.9,6.1-1.8,9c-0.6,2-1.7,3.6-2.6,5.6c0,9.1,2.5,16.4-2.2,28.9c-0.5,1.3-0.3,5.3-0.1,7.3
		c0.6,3.7,1.4,7.2,2.4,10c0.9,2.5,2.1,6.2,3.2,5.3c1.3-1,2.7-6.4,4.9-11.9c-2-0.6-3-0.9-4-1.1l0,0.9c0-0.3,0-0.6,0-0.9
		c3.5-14.4,3.6-14.4,10.4-12c-1.2,6.2-2.6,12.4-3.3,18.7c2,0.1,4,0.3,6,0.4c-1.3,5.2-3.8,11.6-6.2,16.5c-2.5,4.9-4.5,8.3-5.5,7.3
		c-3.9-4.1-5,3.4-5.1,12c0,4.2,0.1,8.4,0.4,12.7c0.5,4.4,1,9,1.6,14.3c-0.3,2.7-0.7,5.7-1,8.8c-0.2,1.6-0.4,3.2-0.6,4.9
		c-0.2,1.7-0.3,3.4-0.4,5.1c-0.5,7-1,14.4-1.6,21.8c-0.3,3-0.5,5.2-1.1,5.7c-0.6,0.6-1.4-0.4-2.3-3.7c-1.4-5.2-2.5-10.9-3.8-16.7
		c-1.4,3.7-2.8,7.3-4.1,10.9c-1.4,3.6-2.8,7.3-3.9,11c-2.4,7.4-4.8,15-7.2,22.9c0.3,0,0.5,0,0.8,0c0,0.5,0,1,0,1.6l1.6-1.4
		c2.5,0.6,5,1.9,7.2,1.2c2.9-0.8,5.3-5,6.4-18.2c1.2,8.5,1.8,13.5,2.7,18c2.1,8.6,3.2,16.7,3.1,23.8c0,1.8-0.1,3.4-0.3,5
		c-0.1,1.6-0.3,3.1-0.5,4.5c-0.5,2.9-1.3,5.4-2.3,7.4c-0.4,0.7-0.9,1.4-0.9,2.7c0,4.9,0,9.8,0,14.6c0.3,4.8,0.5,9.5,0.7,13.8
		c1.4,1.5,3.2,2.7,4.9,5.3c3.7,5.6,6.9,1.7,5-7.5c-1-5-1.8-9.7-2.2-14c-0.2-4.3-0.1-8.3,0.4-12.1c0.3-2-0.5-6.2-0.9-9.5
		c-0.2-1.7-0.4-3.5-0.7-5.2c-0.2-1.7-0.3-3.5-0.5-5.3c-0.3-3.5-0.6-7-0.8-10.5c-0.3-4.6-0.9-11.8,2-7.9c0.9,1.3,2.2,8.4,2.2,11.8
		c0,2.1,0,4.2-0.1,6.4c-0.1,2.1-0.2,4.2-0.2,6.3c0,4.3-0.1,8.6-0.1,13.3c5.9,1.8,6-10.6,8.2-17.4c1.6,8.9,1.9,19.4,1.2,28.2
		c-0.4,8.6-1.8,15.5-4.3,17c0.5,2.2,0.9,5.6,1.5,6.8c1.1,2,1.9,4,2.5,5.8c0.7,1.9,1.1,3.7,1.4,5.4c0.6,3.5,0.7,6.9,0.8,10.4
		c0.1,2.4,0.1,4.7,0,7c0,2.3-0.1,4.6,0.2,7.1c0.4,4.8,0.5,9.6,0.9,14.5c0.2,2.5,0.4,4.9,0.8,7.4c0.4,2.5,0.9,4.9,1.8,7.3
		c2.6,7.3,5.3,14.3,7.8,21.3l0.9,2.6l1,2.6c0.6,1.7,1.3,3.5,1.9,5.2c1.2,3.5,2.3,7.1,3.2,10.7c0.4,1.7,0.9,3.4,1.4,5.1
		c0.5,1.7,1.1,3.5,1.7,5.2c1.3,3.5,2.7,7.1,4.2,10.7c1.5,3.6,3,7.3,4.4,10.9c0.4,0.9,0.7,1.8,1.1,2.7c0.4,0.9,0.8,1.8,1.2,2.6
		c0.8,1.8,1.5,3.5,2.3,5.2c2.3,5.4,4,9.4,5.4,12.6c1.5,3.1,2.6,5.4,4,7.2c2.7,3.5,5.6,5.4,11.6,9c0.3,0.2,1,1.2,2.9,3.6
		c0.7,1.9,1.4,3.9,2.2,6c0.8,2.1,1.8,4.2,2.7,6.3c1.8,4.2,3.4,8.3,4.1,11.6c1.3,6,1.7,8.9,3.4,11.8c1.8,2.9,4.8,5.8,11.3,11.9
		c2.1,1.9,4.2,2.3,5.8,2.5c1.6,0.2,2.5-0.7,3.7-1c4.2-1.1,8.3-2.3,12.9-3.6c4,6.4,9.6,13.7,11.3,18.4c1.4,4,5,8.7,8,13.2
		c3,4.5,5.5,8.7,4.8,11.5c-0.1,0.4,1.3,2.4,3.2,4.7c2,2.3,4.5,5,6.4,7.3c1.1-1.3,1.8-2.2,3.2-3.9c4.3,6.9,6.3,12.2,10.8,16.9
		c4.4,4.5,8.5,8.9,12.5,13.4c2,2.2,4,4.5,6,6.7c2.1,2.2,4.2,4.3,6.3,6.5c4.3,4.3,8.7,8.7,13.5,12.9c5,4,10.3,8,16.2,11.9
		c2.3,1.5,4.6,3.4,6.9,5.3c2.3,1.9,4.6,3.9,6.8,5.7c4.9,4.1,9.7,8.1,14.6,12.2c5,3.8,10.2,7.7,15.5,11.4c2.7,1.9,5.3,3.8,8.1,5.6
		c2.8,1.7,5.7,3.4,8.7,5.1c3,1.7,6,3.3,9.1,4.9c1.6,0.8,3.1,1.6,4.7,2.4c0.8,0.4,1.6,0.8,2.4,1.2c0.8,0.4,1.7,0.7,2.5,1.1
		c4.8,2,9.6,4.7,14.1,7.1c2.5,1.4,5,2.7,7.5,4.1c1.3,0.7,2.5,1.3,3.8,2l3.8,1.9l15.4,7.6c5.1,2.6,10.5,4.7,15.7,7
		c5.3,2.3,10.6,4.5,16,6.7c8.1,3,16.5,5.8,24.8,8.6l3.1,1c1.1,0.3,2.1,0.6,3.2,0.9l6.4,1.8c4.3,1.2,8.5,2.4,12.8,3.6l7.1,2l7.1,1.7
		l14.3,3.3l7.2,1.6c2.4,0.5,4.8,0.9,7.2,1.3c4.8,0.8,9.7,1.7,14.5,2.5c2.1,0.3,4.1,0.7,6.2,1l3.1,0.5l3.2,0.3
		c4.2,0.4,8.5,0.7,12.7,1c3,0.2,6.1,0.6,9.2,1c1.6,0.2,3.1,0.4,4.7,0.7c1.6,0.2,3.1,0.3,4.7,0.4c6.2,0.4,12.4,0.4,18.2-1.4
		c1.1-0.4,7.7,0.4,10.2,1c8.7,2.1,17,1.4,24-0.9c2.3-0.8,4.2-1.7,5.9-2.6c1.8-1,3.4-2.1,5.4-3.3c5,1.2,7,1.4,7.3,1.8
		c2.1,3.1,5.8,5.3,19.3,3.9c9.7-1.3,23.2-1.1,28.8-3.2c7.6-3.1,14.3-4.6,20.8-5.3c3.2-0.4,6.4-0.6,9.6-0.7c3.1-0.2,6.2-0.4,9.3-0.6
		c8-0.6,13.8-1.6,20.7-4.9c7.2-3.8,14.2-6,23.7-6.6c5.7-0.3,11.9-1.5,18.3-2.7c3.2-0.6,6.5-1.3,9.9-2c1.7-0.3,3.4-0.7,5-1l2.5-0.5
		l2.5-0.6c1.1-4,1.9-7.4,2.8-10.8c6.1-2,11.7-3.8,17.1-5.6c2.7-0.9,5.3-1.9,7.9-2.9c2.6-1,5.1-2,7.7-3c2.2-0.9,5.2-3.1,6.4-4.4
		c3-3.2,5.2-6.1,8.3-10.3c-3.5,1-7.3,1.8-11.5,2.7c-4.2,0.9-8.7,1.9-14,3c6.1-3.5,10.7-6.7,15.6-8.8c1.2-0.5,2.6-1.1,3.9-1.7
		c1.3-0.6,2.6-1.3,3.9-1.9c2.7-1.3,5.3-2.6,7.9-3.8c5.2-2.4,10-4.4,13.4-5c4.5-1,5,0.4,3.8,2.8c-1.2,2.4-4.2,5.6-6.7,8.3
		c-2.1,2.3-3,4.6-2.6,6c0.3,1,3.1,1.2,5.9,0.5c3-0.8,6.3-1.8,9.5-3c3.2-1.2,6.4-2.5,9.5-3.5c7-2.4,12.6-5,14-8
		c2.1-1.2,3.9-2.5,5.6-3.7c1.7-1.2,3.3-2.3,4.8-3.3c3-2,5.5-3.8,7.5-5.2c1.2-8.3-13.4-1-22.4,0.6c13-10.1,24.8-17,34.7-19.3
		c4.7-1,9.8-2.9,15.3-5.7c2.7-1.3,5.4-3.1,8.2-4.9c2.8-1.9,5.6-3.9,8.5-6.1c1.9-1.5,3.8-3.3,5.5-5.3c1.7-2,3.4-4,4.8-5.9
		c2.2-2.9,3-6,5.4-8.1c3.7-3.3,8.3-6.1,12.4-8.6c2.2-1.3,3.8-1.2,5.9-2.6c6.4-4.2,13.1-9.3,19.5-13.8c1.6-1.1,3.2-2.2,4.7-3.3
		c1.5-1,3-2,4.4-2.9c2.9-1.8,5.7-3.1,8.2-3.9c0.1,0,1-1.3,1.6-1.9c0.1-2.1,0.1-4.1,0.2-6.9c4.4-2.4,8-4.9,11.6-7.2
		c3.6-2.3,7-4.5,10.5-6.8c1.2-3.8,1.9-6.2,2.8-9c1.6-0.9,2.7-1.9,3.1-1.8c5.6,0.8,13.8-4,25.5-16.4c6.1-6.8,12.5-12.8,15.9-11.2
		c1.1,0.5,2.9-0.2,5-2.1c2.1-1.9,4.5-5,6.6-9.4c6-12.2,8.6-11.9,9.5-8.6c0.7,2.5-0.6,7.8-1.3,12.1c-0.5,3.1-1.3,6.7-2.2,9.9
		c1.7-2,3.3-4.1,5-6.2c1.6-2.1,3.3-4.2,4.9-6.2c3.4-4.3,7.4-10.1,10-12.3c2-1.6,3.5-3.1,4.9-4.6c1.3-1.5,2.4-3,3.2-4.5
		c1.7-3,2.5-6.3,2.7-10.4c0.1-1.9,0.6-5.5,1.5-7c1-1.5,1.7-2.8,2.4-3.9c0.6-1.1,1.1-2.2,1.4-3c0.7-1.7,0.9-2.9,0.9-3.8
		c-0.1-1.7-1.3-2.1-2.2-2.9c-1.2-1.1-2.6-2-3.8-3l2-4.3c2.5-1,5.1-2,7-2.7c2.3-4,4.6-7.8,6.6-11.5c2-3.8,4-7.5,6-11.5
		c-2.1,0.1-4.3,0.1-5.3,0.2C1204.3,874.8,1207.3,865.7,1206.4,863.9 M1204.1,402.7l0.3,8.8l-1.4-1.8l-1-9.8L1204.1,402.7z
		 M1116.8,524.7l3.5,3.5l0.1,3.2l-3.6-2.9L1116.8,524.7z M78.2,414.7c3.7-12.9,7.8-18.6,8.9-13c0.5,2.2-1.6,8.8-2.7,14.2
		c-1.7,2.8-2.9,5.5-4.2,8.1c-1.3,2.5-2.5,4.9-3.7,7.3C76.9,425.9,76.6,420.6,78.2,414.7 M76.4,451.3c0.7-1.5,1.4-3,2.1-4.3
		c0.7-1.4,1.6-2.7,2.3-4.1l0.5,3.9l-4.6,8.4C76.6,453.8,76.2,451.7,76.4,451.3 M42.7,485.5c2-10.6,3-16.4,4.5-20.3
		c1.5-3.8,3.2-5.7,6.1-8.4C48.5,468,45.8,476.8,42.7,485.5 M49,482.2l0-4.1c2.2-3.3,4.4-6.5,6.7-9.7c0,1,0,2,0.1,3L49,482.2z
		 M62.2,410.6c-0.9,1.7-1.8,3.5-2.7,5.2c-1.8,3.5-3.5,7-5.2,10.8c-3.5,8-5.2,8.2-5.6,3.4c-0.4-6-1.1-12.1,5.7-21.7
		c3.3-4.3,6.9-12.8,10.5-19c1.4-2.5,3-3.8,5.1-6.4c0.3,3.9,1.3,6.5,0.6,10.7c-0.5,2.6-3.6,7.9-5.6,11.7
		C64.1,407.1,63.1,408.8,62.2,410.6 M84.3,475.2c-1,2.6-2,5.4-2.5,5.7c-5,3.3-9.8,4.9-14.8,7.3c1-5.6,1.9-10.3,2.8-14
		c0.4-1.9,1-3.5,1.5-5c0.5-1.5,1-2.7,1.5-3.9c2.1-4.5,4.3-6.3,7.6-7c2.9-0.7,4.1,7,5.7,11.6C86.2,470,85.3,472.6,84.3,475.2
		 M87,428.9l-2.3-1.2l1.7-4.3l2,2.1L87,428.9z M104.3,344.2c-0.4,0.8-1.2,1.3-1.8,2c0.2-0.9,0.1-1.8,0.5-2.6
		c0.4-0.8,1.2-1.5,2.1-2.6C104.8,342.4,104.7,343.5,104.3,344.2 M1084.1,981.6c-0.2,0.5-0.5,1.1-0.8,1.6c0,0-0.4,0.2-0.6,0.4
		l0.7-1.6C1083.6,981.9,1083.8,981.7,1084.1,981.6 M131.7,341.7c0.6-3.9,0.6-7.4,2.1-11.9c0.3-0.9,1.4-2.2,2.6-3.7
		c0.7-0.7,1.3-1.5,2-2.3c0.7-0.8,1.4-1.5,2-2.2l1.7,0.2c-0.4,1.1-0.7,2.2-1.1,3.3c-0.3,1.1-0.6,2.2-1,3.3c-0.7,2.2-1.4,4.5-2.4,6.8
		C137,337,133.8,339.5,131.7,341.7 M151.3,440.1c0.2-0.6,0.4-1.4,0.6-1.8c0.2-0.4,0.6-0.3,0.9-0.5c-0.1,0.6-0.3,1.1-0.4,1.7
		L151.3,440.1z M169,282.7c-0.1-0.4,0.6-1.9,1.5-3.4c0.9-1.5,2.1-3.2,3-4.1c4.1-4.1,8.2-7.5,14.4-13c-2.6,4-5.2,7.8-7.8,11.6
		c-1.3,1.9-2.6,3.9-3.9,5.9c-0.7,1-1.3,2-2,3c-0.7,1-1.3,2.1-2,3.2C171.1,285,169.4,284.7,169,282.7 M210.5,255.9l3.3-3.9
		c1.1-1.3,2.2-2.6,3.4-3.9l0.9,0.7c-1.2,1.2-2.3,2.5-3.4,3.8l-3.3,3.9L210.5,255.9z M261.7,237l4.1-3.4l0.3,0.7l-3.9,3.6L261.7,237z
		 M293.6,166.1c5.9-2.7,12.3-6.5,14.1-6.2c1.9,0.3-0.7,4.6-1,5.9c3.5,2.1,6.5,3.9,9.4,5.7l-3,3.5l-17.5,7.7
		c-5.7,2.8-11.4,5.7-17.2,8.5l-1.2-1c7.3-5.5,11.9-10.2,14.5-14C294.4,172.4,294.8,169.1,293.6,166.1 M305.2,140.6l0.4-0.6l1.6-0.6
		c-0.1,0.2-0.3,0.5-0.4,0.6C306.3,140.2,305.8,140.4,305.2,140.6 M283.7,234.8c-0.1,0.3-0.2,0.7-0.2,1c-0.5,0.3-1.1,0.7-1.4,0.7
		c-0.2,0,0.1-0.6,0.2-0.9L283.7,234.8z M1079.3,237.9c-0.6-2.3-1.2-4.6-2-6.8c1.5,2.7,2.9,5.6,4.3,8.4L1079.3,237.9z M1070,242.9
		c1.2,1.8,1.9,3.6,3.3,6.2c-1.8-1.2-3.5-2-4-2.8c-1.1-1.6-2-3.7-2.1-4.7C1067.1,241,1069.6,242.4,1070,242.9 M1053.2,219.1
		c1.2,1.5,1.9,3.3,3.4,6c-2.3-1.8-4.2-2.8-4.8-3.7c-1.1-1.7-1.6-3.2-2.4-4.7C1050.7,217.3,1052.4,218,1053.2,219.1 M701.5,69.6
		c0.2,0.1,0.2,0.2,0.4,0.4c-0.3,0-0.7,0-0.9-0.1c-0.2-0.1-0.2-0.2-0.4-0.4C700.9,69.6,701.3,69.5,701.5,69.6 M639.4,11.9
		c1.4,0,2.8,0.4,5.6,0.8c-2.4,0.5-3.7,1-4.8,0.9c-1.2-0.1-2.4-0.6-3-1C637,12.5,638.6,11.9,639.4,11.9 M603.6,58l0.5,1.1l-6.5,0.5
		l-0.5-0.7L603.6,58z M565,28.9l8.3,0.3l-2,1.7c-2.5-0.2-5.2-0.3-7.5-0.6C563.4,30.3,564.5,29.4,565,28.9 M529.8,56.2
		c1.1,0.1,1.9,0.3,2.6,0.4c-0.8,0.3-1.5,0.7-2.4,0.9c-0.4,0.1-1.8,0-1.7-0.1C528.5,57.1,529.1,56.8,529.8,56.2 M467.4,46.5
		c1.9,0.2,3.5,0.3,4.2,0.7c0.1,0.1-0.5,0.4-1.2,0.8c-0.7,0.4-1.4,0.8-1.7,0.8c-1.5,0.2-3.1,0.1-3.8-0.2
		C464.6,48.4,466.2,47.5,467.4,46.5 M464.3,120l14.2-1.2l-1.5,1.8c-4.6,0.4-9.3,0.7-14,1.1C463.4,121,463.8,120.5,464.3,120
		 M456.5,55.8c0.9-0.2,1.8-0.2,2.7-0.3c-0.5,0.3-1,0.6-1.5,1c-0.7,0.1-1.4,0.2-2.1,0.2C455.9,56.4,456.3,55.9,456.5,55.8
		 M442.2,41.9c0.2-0.1,1.1,0,1.7,0.1l-1.6,0.9c-0.7,0.1-1.5,0.2-2.2,0.2C440.7,42.7,441.4,42.2,442.2,41.9 M421.2,147.4l3.7-1.2
		l-0.1,2.6c-1.3,0.4-3.6,1.1-3.6,1C420.9,149.2,421.1,148.3,421.2,147.4 M403.8,124.4c0.9-0.4,1.8-0.6,3.5-1.2
		c-1.2,1-1.8,1.6-2.5,1.9c-0.6,0.3-1.4,0.2-2.2,0.3C403,125.1,403.4,124.6,403.8,124.4 M395.1,102.8c-5.4,7-12.2,9.2-19.6,10.2
		l-0.4-1.5L395.1,102.8z M358.4,160.8c3.1-2.2,6.3-5.2,7.5-7.2c3.4-5.4,9.2-7.1,14.2-7.6c4.8-0.5,8.3,0.3,12.3,0.6l-2.8,1.9
		c-1.1,2.4-3.1,5.2-2.7,6.8c0.1,0.6,6.1-1.5,9.6-2.7c10.5-3.2,16.4-0.4,13.4,6.5c-2,0.9-3.9,1.8-5.8,2.6c-1.9,0.8-3.7,1.4-5.5,2.1
		c-3.5,1.3-6.9,2.1-10.2,2c-2.4,0-7.3,1.7-11,3.3c-11.5,5.4-15.4,5.1-13.7-1c0.5-1.8-2.6-2.8-5.7-2.2
		C350.8,167.5,351.1,166.1,358.4,160.8 M335.1,125.7c2.7-1.3,5.4-2.5,8.1-3.7c2.7-1.2,5.4-2.4,8.1-3.5l-1.1,3.1
		c-5.3,2.2-10.6,4.6-15.9,6.7C334.2,128.4,334.9,125.7,335.1,125.7 M334.1,138.5c1.4,0.5,2.9,1.4,5.4,0.7c11.5-3.4,8.5,1.4,4.9,6.9
		c-2.2,3.4-3.7,6.5-5.8,10.6c-6.2,3.1-13,4.4-11.4,0.7c2.5-5.8-1.7-4.6-9.7-0.8c9.5-9.4,9.8-10.7,1.5-11c3-2.7,5.8-4.9,8.3-6.2
		C329.7,138,332.1,137.7,334.1,138.5 M287.1,122.2c4.3-2.4,8.7-5,13.1-8.9c1.7-1.4,4.4-2.9,7.5-4.3c0.8-0.3,1.6-0.7,2.4-1
		c0.8-0.3,1.7-0.6,2.5-0.8c1.7-0.5,3.4-1,5.1-1.4c6.6-1.6,12.2-1.9,11.8,0.1c-0.4,1.6-4.9,5.8-8.3,7.8c-5.2,3-11.1,6.1-16.1,8.2
		c-5.5,2.3-10.1,2.7-15.6,5.3c-9.4,5-12.1,3.7-14.8,2.1C278.9,126.8,282.9,124.6,287.1,122.2 M274.4,129.6c0.1,0,0.1-0.1,0.2-0.1
		l-0.5,0.5L274.4,129.6z M255.6,173.8c5.6-1,10.2-1.8,15.5-2.8c-3.7,3.1-6.7,5.4-9.1,7.1c-1.2,0.8-2.2,1.4-3.1,1.9
		c-0.9,0.5-1.6,0.8-2.2,0.9C254.4,181.4,254.1,178.9,255.6,173.8 M256.8,276c-1.7,1.8-3.3,3.6-5,5.4c-0.2,0.1-0.4,0.1-0.6,0.2
		c-1.1,0.5-2.3,1.2-3.4,2.2c-2.2,2-4.4,5.1-6.8,9.3c-0.4,0.6-0.7,1.2-1.1,1.8c-1.1,1.3-2.3,2.7-3.4,4c-0.1,0.1-0.3,0.2-0.4,0.4
		c-1.6,1.2-3,1.5-4.3,0.5c-1.8-1.5-4.9-1.5-8.5-2.4c4.4-4.6,9-8.6,13.3-12.6c4.4-3.9,8.5-8,13.3-11.8
		C252.1,273.9,254.4,274.9,256.8,276 M231.3,228.3c0.6-0.4,1.3-0.8,1.9-1.2c1.3-0.8,2.6-1.5,3.8-2.3c2.5-1.4,5.1-2.8,7.6-4.2
		c2.1-1.1,2,2.8,2.9,4.4c-3.1,2.7-7,6.8-9.3,7.9c-8,4.1-15.4,7.4-23.3,11.2c4.6-6.3,9.6-10.8,14.5-14.5
		C230.1,229.2,230.7,228.7,231.3,228.3 M219.3,215.4c2.1-1.6,4.5-2.8,6-3.1c0.5-0.1-1.2,2.9-2.5,5.6c-2.9,1.1-5.1,2.6-6.2,2.5
		C216.2,220.3,218.3,216.3,219.3,215.4 M222.1,225.8l-0.3,2.2c-7.5,10.2-9.3,11.4-14.7,9.3C213,232.8,217.5,229.3,222.1,225.8
		 M201.5,258.2l2.1-0.5l-3.4,6.1l-2.6,0.4L201.5,258.2z M184.1,237l-2.5,4c3.1,0.8,6.2,1.5,9.1,2.6c0.8,0.3,1.6,1.5,0.8,2.9
		c-1.3,2.2-4,5.3-5.9,7c-1.8,1.5-3.4,2.8-4.9,4.1c-1.5,1.2-2.8,2.2-4.1,3c-2.5,1.7-4.6,2.5-6.1,2.6c-3.1,0.2-4.1-2.7-2.5-9
		c0.3-1.3,1.4-3.4,2.8-5.7c0.4-0.6,0.7-1.1,1.1-1.7c0.4-0.5,0.8-1.1,1.2-1.6c0.8-1,1.7-2,2.4-2.9C178.1,239.9,181.3,238.7,184.1,237
		 M161.1,234.6c0.3-2.1,2.4-6.1,4.7-9.2c1.2-1.6,5.8-4.6,6.6-4.2c1.5,0.7,1.8,3,1.6,5.6c-0.2,2.7-1.7,6.4-2.9,10.5
		c-0.9,0.7-2.3,2-4.1,3.5c-1.8,1.5-3.7,3.4-5.8,5.3c-0.1-2-0.3-3.8-0.4-5.6c-0.1-0.9-0.1-1.9-0.1-2.8
		C160.9,236.7,161,235.7,161.1,234.6 M153.6,273.8c1.9-0.8,3.8-1.7,5.8-2.4c-0.9,1.5-2.1,4.3-2.5,4.5c-2,1.4-3.9,2.2-5.8,3.3
		L153.6,273.8z M143.4,305l-3.7,9.6l-3.2,2.1c1-3,2-5.9,3.3-9C140,307.2,142.1,305.9,143.4,305 M116,320.3
		c5.4-6.8,11.3-13.1,17.1-19.1c1.5-1.5,3.3-2.3,4.1-2c0.6,0.2,0.2,2.7-0.7,4.3c-1.1,2.2-4.1,6.4-4.5,6.4c-1.9,0.2-3.6,1.9-5.4,4.3
		c-0.9,1.1-1.8,2.5-2.6,3.9c-0.9,1.4-1.7,2.8-2.6,4.1c-3.1,4.6-6.7,8-9.2,10.9C109.2,331.9,111.6,325.7,116,320.3 M107,354.1
		c2.3-3,4.9-7.4,6.8-8.8c1.2-1,2.4-2,3.7-3.1c1.2-1.1,2.5-2.3,3.7-3.7c2.4-2.9,4.8-6.7,7.2-12.4l1.9,0.2c-1.5,3.8-3.1,9.3-4.4,10.9
		c-6.7,7.3-12.6,14-18.8,21.1L107,354.1z M106.2,370.2c0.3-2.3,0.6-5.6,1.3-6.7c2.1-3.1,4.4-5.3,8.2-9.7c-1.7,5.2-2.4,8.8-3.2,9.9
		c-1,1.4-2.1,2.4-3.2,3.4c-0.5,0.5-1.1,1-1.6,1.5C107.2,369.2,106.7,369.7,106.2,370.2 M119.5,374.6c-7,11.9-11.3,14.3-10.7,4.5
		c0.2-2.3,2.9-8.9,6.4-14.8c3.4-5.9,7-11.3,8.3-11.5c1-0.1,0.4,3.4,0.5,4.6c3.2-0.6,6.1-1.2,9-1.7c-1.4,3.4-2.7,7.9-4.2,9.9
		C125.8,369.7,122.5,372.4,119.5,374.6 M1062.1,1032.6c-0.2,0.3-1,0.8-1.6,1.2c0.1-0.6,0.3-1.1,0.5-2c1.1-0.7,1.8-1.2,2.5-1.7
		C1063.1,1031,1062.7,1031.7,1062.1,1032.6 M1063.6,1019.2c-2.6,1.8-5.4,3.5-8.2,5.5c0.8-2.3,1.6-4,1.8-5.3
		c0.4-3.2-2.3-4.8,5.2-11.8c3.4-3.1,6.7-5.9,10.1-8.5c1.7-1.3,3.4-2.6,5-3.8c1.7-1.2,3.2-2.5,4.8-3.8c0.8-0.6,1.5,2.4,0.3,4.5
		c-3.2,5.5-7.3,12.1-11.8,16.9C1068.6,1015.3,1066.2,1017.3,1063.6,1019.2 M1085.6,999.8c-0.5,1.3-1,2.6-1.6,3.9
		c-0.1,0.2-2.5,1.9-3.9,2.8l3.4-8.2l3.4-2.4C1086.4,997.2,1086,998.5,1085.6,999.8 M1118.6,977c-0.7,0.6-1.8,1.7-2.1,1.7
		c-0.3,0,0.1-1.2,0.2-2.2c1-1,1.8-1.7,2.5-2.4L1118.6,977z M1126.6,874.4l-1.9,2.1l0.5-4.9l1.4-1.7L1126.6,874.4z M1118.6,834
		c7.4-6.1,12-10.8,17.9-16.3c-1.2,3.2-2.5,7-4.1,11.2c-0.7,2.1-1.7,4.3-2.6,6.6c-1,2.3-2,4.7-3,7.3
		C1123.8,839.6,1121.7,837.2,1118.6,834 M1132.2,891.2c-1,1.1-2.1,2.1-3.2,3.2c0.5-2.2,1-4.6,1.4-6.7c0.5-0.6,0.9-1.2,1.3-1.6
		c0.2-0.2,0.3-0.4,0.4-0.5c0.1-0.1,0.1-0.2,0.1-0.2C1132.3,887.3,1132.2,889.3,1132.2,891.2 M1131.1,865.6c0.8-1.3,1.5-2.6,2.2-3.8
		c0.7-1.2,1.3-2.3,1.9-3.4c1.2-2.1,2.3-3.9,3.2-5.5c1.9-3.1,3.5-5,4.6-5.8c2.3-1.6,3.1,1.2,2.8,8.1c-0.1,1.4-2.3,5.4-3.5,8.2
		c-1.4-0.7-2.6-2.2-4.3-2c-0.7,0.1-1.7,0.6-2.8,1.4C1134,863.7,1132.6,864.7,1131.1,865.6 M1192.5,878.2L1192.5,878.2
		C1192.5,877.8,1192.5,877.9,1192.5,878.2"/>
	<path class="st0" d="M30.5,738c0.3-1,0.4-2.2,0.5-3.6c0.1-1.4,0.2-3,0.2-4.8c0-3.6-0.4-8-1-13c-1.8-12.2-1.1-24.4-0.6-35.5
		c0.1-2.1,3.6,0.7,5.5,1.1c0.1,0,0.1-0.6,0.3-2c-1.1-2.2-2.2-5-3.3-7.4c-1-2.5-2-4.6-3.1-5.7c-3.9-3.9-2.8-9.5-2.9-17.1
		c0-1.7-0.2-3.4-0.4-5.2c-0.2-1.8-0.4-3.6-0.6-5.5c-0.4-3.7-0.8-7.3-0.6-10.5c0.2-3.7,0.8-7,1.5-10.3c0.4-1.6,0.7-3.2,1.1-4.9
		c0.4-1.6,0.8-3.3,1.2-5c2.2-10.2,4.2-20.5,8.7-20.3c0.5,0,1.1-2.8,1.7-3.6c1.6-2.2,3.4-5.6,5-5.6c3.2,0,4.9-0.5,6.1-4
		c0.6-1.7,1.1-4.2,1.5-7.7c0.2-1.7,0.4-3.8,0.6-6.1c0.1-1.2,0.2-2.4,0.3-3.7c0-0.7,0.1-1.3,0.2-2c0.1-0.7,0.2-1.4,0.2-2.1
		c-1.3,1.6-2.3,3.2-3.3,4.6c-1,1.4-1.9,2.7-2.8,3.7c-2.4,2.6-4.9,5.7-7.2,5.9c-2.4,0.2-4.6-3-7-4.6c-1.1-0.7-2.2-1.4-2.7-3.2
		c-0.3-0.9-0.4-2.1-0.4-3.7c0-0.8,0.1-1.7,0.2-2.8c0.2-1,0.4-2.2,0.7-3.5c2.6-11.1,0.7-15.1-2-15c-3.1,0.2-6.6,2-10.1,15
		c1,2.4,2.1,4.8,3.2,7.2c1.1,2.4,2.2,4.8,3.4,7.4c0.1,1.9-0.2,7.2,0.5,9.2c0.7,2,1.2,3.9,1.5,5.9c0.3,2,0.5,4,0.6,6.1
		c0.2,4.2-0.4,8.8-1.6,14.1c-1,4.3-1.9,9-2.8,13.6c-0.7,4.6-1.5,9.1-2.4,13c-1.4,5.7-3.8,8.7-5.8,12.8c-0.8,1.6-2,2.2-2.4,4.5
		c-0.8,5.5-0.9,12.3-1.7,17.7c-0.5,2.9-1.8,5.2-2.9,5.3c-1.3,0.1-2.8-2.3-4.2-4.1c-2.5-3.3-3.5,0.2-3.2,7.4c0.1,6.7,1,14.5,4.1,16
		c4.7,2.3,9.3,4.8,13.9,6.6c2.5,1,4,4,4.5,12.3c0.3,3.3,1.1,6.9,1.7,10.4c-3.5,3.3-6.9,6.7-10.3,10c1.8,3.3,3.4,5.8,4.9,7.9
		c0.8,1,1.5,2,2.2,2.8c0.7,0.8,1.5,1.6,2.2,2.4C27.1,742.4,29.5,741.9,30.5,738 M22.9,693.1l-0.3-0.7l0.3-0.1L22.9,693.1z M19,676.9
		c-0.5,0.1-1.2-0.8-1.8-1.9c-0.6-1.2-1.3-2.7-1.9-3.7c0.4-4.1,0.6-8.8,1.4-11.9c1-4.1,2.5-6.8,5.1-13.1c0.5,9.7,1.4,17.8,1.1,24.6
		C22.6,674.3,20.5,676.5,19,676.9 M24.4,715.3l1.8-4.3l1,4.6C26.3,715.5,25.3,715.4,24.4,715.3"/>
	<path class="st0" d="M135.1,976.6c-0.1-0.8-0.8-2-1.6-3.3c-0.8-1.3-1.8-2.7-2.5-4.1c-2.9-5.5-5.7-11-8.4-16.4
		c-0.7-1.4-1.3-2.7-2-4.1c-0.6-1.4-1.2-2.8-1.8-4.1c-1.2-2.7-2.3-5.5-3.4-8.1c-1.9-4.7-4.1-9.1-6.2-12.3c-0.5-0.8-1-1.5-1.5-2.1
		c-0.5-0.6-0.9-1.2-1.4-1.6c-0.9-0.9-1.7-1.3-2.3-1.1c-3.2,0.7-5.3,3.4-7.9,5.3c1.1,0.6,2.3,1.5,3.6,2.6c1.3,1.1,2.8,2.4,4.2,4
		c2.9,3,6,6.8,8.8,10.9c1.4,2,2.8,4.2,4.1,6.3c0.6,1.1,1.3,2.1,2,3.2c0.7,1,1.3,2.1,1.9,3.1c2.4,4.1,4.3,8.2,5.3,11.6
		c1.2,3.8,2.2,7.6,3.2,11.3c1.1,3.7,2.3,7.3,3.6,11.1c1,2.8,2.9,6.3,4.4,9.4c2.2,0.7,5.2,2.5,6.4,1.9c0.9-0.5-0.1-3.6-1.1-6.2
		C140.2,988.3,137.5,982.4,135.1,976.6"/>
	<path class="st0" d="M34.8,763.4c-0.7-2.9-2.4-5.7-3.6-8.6c-0.2,2.6-0.9,5-0.4,7.8c0.1,0.6,0.2,1.2,0.3,1.9
		c0.2,0.6,0.3,1.3,0.5,1.9c0.3,1.3,0.7,2.6,1.1,4c0.8,2.7,1.7,5.7,2.7,9c-1,0.4-1.8,0.5-2.5,1c-1.5,1.2-2.9,2.6-4.4,4
		c2.7,5.3,5.3,10.7,8.3,15.6c0.7,1.1,1.4,1,2.1,1.8c4.9,4.9,5.8,0.5,2.6-10.4C39.3,782,37.2,772.6,34.8,763.4"/>
	<path class="st0" d="M1206.9,840.3c1.5-2.6,4.2-8.3,4.2-9.7c0-2.8-0.8-5.2-2.1-4.7c-1.1,0.4-2.4,1.5-3.9,3.2c-1.5,1.7-3.2,4-5,6.7
		c-3.5,5.4-7.3,12.4-10.4,19.8C1194.7,855.3,1200.1,851.8,1206.9,840.3"/>
	<path class="st0" d="M433.9,28.1c1.5-0.2,3-0.4,4.5-0.6c3-0.4,5.9-0.6,8.7-0.7c3.3-0.2,6.5-0.2,9.7-0.3c2.1-1.6,5.7-3.5,6-4.6
		c0.3-1.4-0.7-3-3.6-3.2c-7.8-0.3-28,4.9-40.3,11.9c3.7-0.6,7.1-1.2,10.3-1.8C430.8,28.6,432.4,28.4,433.9,28.1"/>
	<path class="st0" d="M1183.6,870.8c-7.5-2.7-14.8-5.3-22.1-7.9l-1.5,3.6c1.1,8.2,14.7,12,22.2,5.7c0.4,0,0.7,0,1.1,0l-0.9-0.2
		C1182.9,871.6,1183.3,871.3,1183.6,870.8"/>
	<path class="st0" d="M1217.8,746.8c-0.2-2.6-1.5-5.7-1.8-5.1c-2.6,5.4-5.5,9.7-8.2,15.1c-1.4,2.7-2.7,5.8-4.1,9.4
		c-1.5,3.6-2.9,7.8-4.3,12.9c2.3-2.1,4.8-3.3,5.4-5.1c0.9-3,1.7-5.5,2.6-7.6c0.8-2.1,1.6-3.8,2.4-5.3c1.7-2.9,3.4-4.7,5.3-6.4
		C1215.9,754,1217.9,747.8,1217.8,746.8"/>
	<path class="st0" d="M1225,776.2c-3.8,6.3-7.6,12.3-11.4,18.9c-0.2,0.3-0.3,1.6-0.5,3.5c-0.2,1.9-0.5,4.5-0.9,7.6
		c1.3-2,2.6-3.9,3.8-5.7c1.1-1.8,2.2-3.6,3.2-5.3c2-3.4,3.9-6.6,5.8-10C1225.2,784.8,1225.1,779.3,1225,776.2"/>
	<path class="st0" d="M40.2,695.7c-0.3,1.8-0.6,4.5-0.6,8.2c0,3.7,0.1,8.4,0.2,14.1c3.8,2.6,5-0.5,5.3-5.3
		c0.3-4.9-0.4-11.7,0.2-16.9C42.3,692.4,40.9,692.2,40.2,695.7"/>
	<path class="st0" d="M841.6,1205.4c-1.1-1.6-0.6-3.9-0.9-6.6c-4.8,2.6-7.2,4.5-8.4,5.9c-1.1,1.4-1,2.4-0.6,3.5
		c0.7,2,2.2,3.9-4.8,8.1c10.1-3,15.7-5.1,21.3-7.1C845.2,1207.6,842.6,1206.9,841.6,1205.4"/>
	<path class="st0" d="M173.6,1042.9c-2.4-1.1-4.9-2.3-9.4-4.3c3.2,5,5.1,8.9,8,12c1.2,1.3,2.8,2.4,4.4,3.4c1.7,1,3.4,1.9,5.1,2.9
		c-1.4-2.3-2.9-4.6-4.2-7L173.6,1042.9z"/>
	<path class="st0" d="M1200.9,824c0.9-1.1,2.2-5.8,3.2-8.9l-7.1-3.8C1194.6,826.2,1196.3,829.7,1200.9,824"/>
	<path class="st0" d="M1172.8,749.6c-0.8,1.8-1.4,4.6-2,7.5c-0.6,3-1.2,6.2-1.6,8.8c-0.2,1.2,2.3,0.6,4.1,1c0.1-3.7,0.1-6.5,0.3-8.7
		c0.1-2.2,0.2-3.9,0.6-5.2c0.7-2.7,2.1-4.1,4.9-6.7l0.3-3C1177.2,745.3,1174.5,745.7,1172.8,749.6"/>
	<path class="st0" d="M292.5,107.5l6.8-6.3c2.3-2.1,4.6-4.3,7-6.2c-1.2,0.3-2.5,0.4-3.8,0.7c-1.2,0.3-2.5,0.6-3.6,1.3
		c-7.8,4.7-10.6,8.5-9.9,11.1L292.5,107.5z"/>
	<path class="st0" d="M70.1,812.5c-0.3,1.2-0.5,2.3-0.7,3.5c0.6,4.1,0.8,8,1.9,12.4c0.3,1.1,4.6,5.9,4.6,5.5
		c0.1-3.6,0.1-7.6-0.9-12.3C74.6,819.6,71.8,815.7,70.1,812.5"/>
	<path class="st0" d="M984,1113.6l4.8-0.7c1.6-0.2,3.1-0.6,4.7-0.8l9.4-1.8l4.4-4.8c-6.5,1.4-12.9,2.7-19.2,3.9
		C986.7,1110.9,985.3,1112.2,984,1113.6"/>
	<path class="st0" d="M1207.1,847.5c1,2.8,1.6,6.4,3.1,8.1c0.3,0.4,3.4-5.3,6.2-9.8c-3.1-0.9-5.2-1.5-7.3-2.1L1207.1,847.5z"/>
	<path class="st0" d="M65.2,791.2c-0.9,0.5-2.7,0.7-2.5,1.5c1.4,5.1,3.2,10.3,4.9,15.5l2.4-0.1L65.2,791.2z"/>
	<path class="st0" d="M1229.3,455.6c-1-7-1.1-10.9-2.1-13.6c-1.3-3.5-3.2-6.2-4.8-9.2c0.2,3.1,0,6.4,0.8,9.3
		C1224.3,445.7,1226.2,448.9,1229.3,455.6"/>
	<path class="st0" d="M1115,612.2c0.3,1,1.4,1.7,1.7,1c1.5-3.6,2.8-7.7,4.2-11.6l-1.2-3.9c-1.6,3.1-3.3,6.1-4.8,9.5
		C1114.6,607.9,1114.7,611,1115,612.2"/>
	<path class="st0" d="M97.4,903c-0.6-1.9-3.9-5.7-5.7-8.8l-0.9,0.5l1,3.2c0.3,1.1,0.7,2.1,1.1,3.1l2.2,6.3l2.5,2.8
		C97.6,907.8,98.4,906,97.4,903"/>
	<path class="st0" d="M162,1027.5c-1.1-1.3-2.1-2.6-3.2-3.9l-6.3-7.9l-2.1,0.3l6.2,8.1l3.1,4.1l3.3,3.9l2.2-0.7L162,1027.5z"/>
	<path class="st0" d="M370.4,1196.7c-1-0.8-1.9-1.5-2.8-2.1c-1.8-1.3-3.6-2.4-5.4-3.3c-3.2-1.6-6.3-2.5-9.5-2.8
		c-1.5-0.5-3.1-0.9-4.8-1.4l23,11.8c-0.3-0.5-0.6-0.9-0.9-1.3c1.1,0.5,2.2,1,3.3,1.5C372.4,1198.2,371.4,1197.4,370.4,1196.7"/>
	<path class="st0" d="M37.4,817.6c0,0.1,0,0.1,0,0.2c0.1,0,0.1,0,0.2,0L37.4,817.6z"/>
	<polygon class="st0" points="1225.7,724.1 1219.8,729.4 1219.4,734.2 1225.2,730.5 	"/>
	<path class="st0" d="M214,1036.7c-0.5,0.5,1,2.9,2.2,5.7c2.5,0.6,5,1.8,5.1,1.1c0.2-0.8-1.7-3.3-2.7-5.1
		C217,1037.8,214.5,1036.3,214,1036.7"/>
	<polygon class="st0" points="454,1225.1 433.6,1220.6 434,1222 454.4,1227.2 	"/>
	<polygon class="st0" points="1163.5,806.2 1170.2,793.8 1169.6,790.5 1162.8,803 	"/>
	<polygon class="st0" points="128.1,273.8 128.6,275.5 140.1,261.9 139.4,259.8 	"/>
	<path class="st0" d="M37.4,817.7c0,0,0.2,0.2,0.2,0.2l0-0.6C37.6,817.4,37.5,817.5,37.4,817.7"/>
	<path class="st0" d="M38.3,806.9l-0.7,10.3c0.2-0.4,0.4-0.8,0.5-1.3c-0.2,1.3-0.3,3-0.7,3.8c0-0.6,0-1.2,0-1.9
		c-0.8,0.1-1.6-0.1-2.2,0.4c-0.8,0.7-2.2,1.2-1.9,3.2c0.2,1.2,0.8,2.9,1.6,4.8c0.9,1.9,1.9,4.2,3.1,6.9c0-0.5,0-0.9-0.1-1.3
		c0,0.1,0.1,0.2,0.1,0.3l0.3-16.5c0.7-1.6,1.4-3.2,2.1-4.7L38.3,806.9z"/>
	<path class="st0" d="M41.7,739.6l3.8,13.4l1.3-1.2c-1.4-4.3-2.8-8.6-4.1-12.8C42.6,738.8,42,739.4,41.7,739.6"/>
	<polygon class="st0" points="1208,811.8 1209.8,807.7 1207,800.9 1204.9,805.7 	"/>
	<path class="st0" d="M109.1,908.4c-0.2-0.3-0.3-0.5-0.3-0.5c-0.9,0.6-1.7,1.6-2.4,2.5l2.9,4.7l2.4-2.7c-0.5-0.8-1.2-1.9-1.8-2.9
		C109.6,909.2,109.3,908.7,109.1,908.4"/>
	<path class="st0" d="M1186.4,666c0.1-1.8-0.6-2.7-2.1-4.5c-0.1,2.2-0.3,4.3-0.4,6.6c-0.1,1.2-0.2,2.4-0.3,3.7
		c-0.1,1.3-0.3,2.7-0.5,4.2c1.1-2.7,1.9-4.7,2.4-6.3C1186,668.1,1186.3,667,1186.4,666"/>
	<path class="st0" d="M1148.3,738.3c-0.1-5.4-0.1-8-0.1-10.6c-1.2,1.7-2.4,3.5-4.6,6.5C1145.4,735.8,1146.3,736.6,1148.3,738.3"/>
	<path class="st0" d="M1167.7,708.2l1.9-2.2l-0.2-6c0-2-0.3-4-0.4-6l-0.9,1.2c0,0,0-0.1,0-0.1l0,0.1l-0.3,0.4c0,1.1,0.1,2.1,0.1,3.2
		l-0.1,3.1L1167.7,708.2z"/>
	<polygon class="st0" points="87,875.6 83.7,879 86.8,884 88.9,878.7 	"/>
	<polygon class="st0" points="1175.4,809 1173.2,814.4 1176.5,817.6 1178.4,812.6 	"/>
	<path class="st0" d="M204.1,1066.6c2.2,2.7,4.5,5.3,6.8,7.9l2.9,0.6l-6.1-7.6C206.4,1067.2,205.2,1067,204.1,1066.6"/>
	<polygon class="st0" points="63.5,828.6 65.5,837.9 67.4,839.5 65.5,830.2 	"/>
	<path class="st0" d="M16,612.5c0.6-1,1.1-3.3,1.6-5.1c-0.4-1.3-0.9-2.6-1.5-4.5c-0.6,2.7-1.2,4.5-1.4,6.7
		C14.6,610.2,15.7,612.9,16,612.5"/>
	<polygon class="st0" points="1222.8,761.6 1225.9,762.1 1227.1,756.9 1223.5,757.9 	"/>
	<polygon class="st0" points="1190.8,803.8 1187.8,804.4 1186.7,808.5 1189.6,808 	"/>
	<path class="st0" d="M281.4,1146.7c-1.4-0.9-3.1-1.2-5.7-2.1c1.7,1.8,2.9,3.3,4,3.9c1.5,0.8,3.7,1.5,4.1,1.2
		C284.2,1149.4,282.5,1147.4,281.4,1146.7"/>
	<path class="st0" d="M21.2,529.8l3.4-6.2c-0.1-1.2-0.2-2.4-0.3-3.7c-1.2,1.9-2.4,3.7-3.5,5.6L21.2,529.8z"/>
	<path class="st0" d="M179.2,1037.7l-2.5-0.7l6.9,9.6l2.1,0.7c-1.2-1.5-2.2-3.2-3.3-4.8L179.2,1037.7z"/>
	<path class="st0" d="M507.1,1237c-1.4-0.4-3.4-0.3-6.5-0.4c4,1.7,5.2,2.5,6.3,2.7c1.3,0.2,3.8-0.1,3.6-0.3
		C510.1,1238.3,508.6,1237.4,507.1,1237"/>
	<polygon class="st0" points="1212.4,783.1 1211.2,786.8 1213.4,787.7 1214.3,784.8 	"/>
	<path class="st0" d="M8.5,734.1c-0.1,2.7-0.4,4.2,0,5.9c0.2,1,1.1,2.2,1.7,3.4c0.1-1.5,0.4-2.7,0.3-4.4
		C10.4,738.2,9.5,736.5,8.5,734.1"/>
	<polygon class="st0" points="1201.9,665.5 1204.1,657.3 1203.4,655.2 1200.9,662.2 	"/>
	<polygon class="st0" points="23.8,778.3 24.9,784.4 25.8,785.2 25.1,779.4 	"/>
	<path class="st0" d="M1169.9,599.8c-0.3-1-0.7-2-1.2-2.3c-0.1-0.1-0.6,1.8-0.6,2.3c0.2,1.2,0.6,2.1,1.1,3.5
		C1169.6,601.6,1170,600.1,1169.9,599.8"/>
	<polygon class="st0" points="13.7,547.8 13.8,543.9 11.2,546.7 11.2,549.3 	"/>
	<path class="st0" d="M317.5,1170.5c-0.2-0.2-2-0.5-3.9-1.2c1.3,1.3,2.1,2.1,3.3,2.9c0.5,0.3,2.8,0.8,2.7,0.6
		C319.4,1172.3,318.6,1171.4,317.5,1170.5"/>
	<path class="st0" d="M76.6,907.1c0.5,1.3,0.9,2.2,1.2,3.1c0.6,0.3,1.4,1,1.6,0.7c0.1-0.2-0.5-1.7-0.8-2.6
		C78,908,77.4,907.6,76.6,907.1"/>
	<polygon class="st0" points="1190,615.9 1188.7,613.5 1188.2,615.8 1189.3,618.4 	"/>
	<path class="st0" d="M112.7,923.7l-0.7-2.8c-0.7-0.5-1.3-1.1-2.2-1.9c0.3,1.2,0.4,2.1,0.9,2.8C111.2,922.5,112,923.1,112.7,923.7"
		/>
	<path class="st0" d="M940.9,1141.5c2.5-1,3.6-1.2,4.4-1.7c0.8-0.6,1.3-1.4,2-2c-1.1,0.3-2.1,0.5-3.2,1.1
		C943.2,1139.3,942.3,1140.3,940.9,1141.5"/>
	<path class="st0" d="M1183.9,492l0.2-2.4c-0.3-0.3-0.7-0.9-0.9-0.8c-0.2,0.1-0.1,1.1-0.1,1.7C1183.4,490.9,1183.7,491.4,1183.9,492
		"/>
	<path class="st0" d="M1184.1,822.7c0.6-0.4,1.3-1.6,1.9-2.7c0.1-0.2,0.3-2.4,0.1-2.3c-0.5,0.2-1.2,1.2-2.2,2.2
		C1184.1,821.3,1183.9,822.8,1184.1,822.7"/>
	<path class="st0" d="M147.9,991.8c-0.1,0.2,0.3,1,0.6,1.6l1.7,0.8l-1-1.8C148.6,992.1,148,991.6,147.9,991.8"/>
	<path class="st0" d="M1131.1,732.3l0.1,2.1c0.3-0.5,0.5-1,0.8-1.5c0-0.5,0-1.5-0.1-1.5C1131.7,731.3,1131.4,731.9,1131.1,732.3"/>
	<path class="st0" d="M21.6,483.3c0.1-0.6,0-1.3,0-1.9l-1.1,2.3c0.1,0.4,0.2,0.9,0.3,1.4C21.1,484.5,21.5,483.9,21.6,483.3"/>
	<path class="st0" d="M1223,700.9l0.1,2l0.7-1c0-0.7,0-1.7-0.1-1.9C1223.6,699.8,1223.3,700.6,1223,700.9"/>
	<path class="st0" d="M1203,452.8c-0.1-0.2-0.1-0.5-0.1-0.5c-0.2,0-0.4,0.1-0.6,0.1c0.1,0.3,0.2,0.7,0.3,1c0.2-0.1,0.4-0.1,0.5-0.2
		C1203.1,453.2,1203,453,1203,452.8"/>
	<path class="st0" d="M1202.8,712.5c0.2-0.6,0.6-1.4,0.6-1.8c0-0.6-0.2-0.9-0.4-1.3c-0.2,0.6-0.6,1.4-0.6,1.8
		C1202.4,711.7,1202.6,712,1202.8,712.5"/>
	<path class="st0" d="M1161.3,681.1c-0.2,0.5-0.5,1.1-0.5,1.6c0,0.5,0.2,0.8,0.4,1.2c0.2-0.5,0.4-1.1,0.6-1.6L1161.3,681.1z"/>
	<path class="st0" d="M1168.6,623.9c-0.1,0.6-0.1,1.2-0.2,1.7l0.7,0c0-0.6-0.1-1.2-0.1-1.8C1169,623.7,1168.7,623.7,1168.6,623.9"/>
	<path class="st0" d="M1224.6,532l0.4,0.5l0.1-2c-0.1-0.2-0.4-0.5-0.4-0.5C1224.6,530.6,1224.6,531.3,1224.6,532"/>
	<path class="st0" d="M63.4,878.1c0.1,0.4,0.6,1.4,1,2.1c0.2-0.2,0.6-0.1,0.5-0.5c-0.1-0.4-0.6-1.4-1-2.1
		C63.7,877.7,63.3,877.7,63.4,878.1"/>
	<path class="st0" d="M262.6,1117.4c0.3,0.4,0.4,0.9,0.8,1.3c0.4,0.4,1.3,0.7,1.9,1l-1-1.7L262.6,1117.4z"/>
	<path class="st0" d="M1203.4,791.9l0.3-1.9l-0.5,0.6c-0.1,0.4-0.2,0.9-0.2,1.1C1203.1,792,1203.3,791.9,1203.4,791.9"/>
	<path class="st0" d="M1194.4,838.1l0.4-1.1l-0.7,0.4c0,0.3-0.2,0.8-0.1,0.9C1194,838.4,1194.3,838.2,1194.4,838.1"/>
	<polygon class="st0" points="1189.2,742.2 1188.9,742.2 1189,742.9 	"/>
	<path class="st0" d="M1113.7,550.1l0.6,0.9l0-1c-0.1-0.2-0.3-0.5-0.4-0.5C1113.9,549.5,1113.8,549.9,1113.7,550.1"/>
	<path class="st0" d="M70.7,866.8l-0.1,0.9c0.2,0.2,0.4,0.6,0.5,0.7c0.1,0,0-0.3,0-0.5L70.7,866.8z"/>
	<path class="st0" d="M40.5,766.2c0.2,0.2,0.4,0.6,0.4,0.6c0.1,0,0.1-0.5,0.1-0.7c-0.1-0.2-0.4-0.6-0.4-0.6
		C40.4,765.5,40.5,765.9,40.5,766.2"/>
	<path class="st0" d="M115.8,301.9c0,0,0.1,0,0.1,0.1h0C115.9,302,115.9,302,115.8,301.9"/>
	<path class="st0" d="M115.8,301.9C115.6,301.8,115.4,301.8,115.8,301.9"/>
	<polygon class="st0" points="637.8,0.1 637,0 637.1,0.3 	"/>
	<polygon class="st0" points="48.6,714.4 48.5,715.2 48.8,715.5 	"/>
	<path class="st0" d="M399.7,155c-0.1,0-0.5,0.1-0.7,0.2c-0.1,0.1-0.1,0.2-0.2,0.4l0.7-0.2C399.6,155.2,399.8,155,399.7,155"/>
	<polygon class="st0" points="53.9,421.9 54.3,421.3 54,421.2 	"/>
	<path class="st0" d="M100.3,311.4l0.2,0.6c3.2-4.1,6.5-7.9,9.7-12.2c3.3-4.7,6.3-10.1,9.5-15.2c-3.4,0.6-6.8,1-10.4,2.1
		c-0.3,0.1-2.6,4.3-4.8,7.9c2.9-1.8,4.8-2.9,7.7-4.7c-2.6,4.5-4.3,7.8-6.3,10.9l-1.5,2.3l-1.5,2.4l-2.9,4.7L100.3,311.4l-0.4,0.6
		L100.3,311.4z"/>
	<path class="st0" d="M1160.1,849.4c2.2,2.5,3.8,3.4,5.7,1.8c1.1-0.9,2.4-2.7,3.9-5.5c0.8-1.6,1.7-3.4,2.6-5.6c1-1.9,2-4,3.1-6.7
		l-15,14.4c-0.5,0-1,0-1.5,0.1c0.2,0.3,0.4,0.5,0.6,0.8l-0.6,0.6C1159.3,849.3,1159.7,849.4,1160.1,849.4"/>
	<path class="st0" d="M1187.3,720.5l1.2-2.7l-2-10.2l-1.2,2.8c-0.3,0.3-0.7,0.6-1.1,1.2l3.2,10.8
		C1187.4,721.9,1187.4,721.3,1187.3,720.5"/>
	<path class="st0" d="M33.4,613.9l-1.2-0.1l0.3,21.2l1,0l0,2.6l0-2.6l0.7,0l-0.4-21.2L33.4,613.9l0.1-2.5
		C33.4,612.2,33.4,613.1,33.4,613.9"/>
	<path class="st0" d="M1226.5,799.7l0.3-2.9c-1.3,1.8-2.6,3.6-3.9,5.6c0,0-0.1,0.5-0.2,1.1l-0.6,0.6c0.2-0.2,0.4-0.4,0.6-0.6
		c-0.1,1.1-0.3,2.6-0.2,2.5c1.2-1.1,2.6-2.7,3.8-4.2L1226.5,799.7c0.1-0.1,0.3-0.3,0.4-0.4L1226.5,799.7z"/>
	<path class="st0" d="M1152.9,779.5c-0.2-0.7-0.4-1.5-0.6-2.2c-0.7,1.6-1.4,3.1-2.2,4.6l1.7,3.6l1.7-3.4c-0.2-0.8-0.4-1.6-0.6-2.4
		c0-1.1,0-2.1,0-3.2L1152.9,779.5z"/>
	<path class="st0" d="M187.3,1048.8l-8.1-11.6C181.9,1041.1,184.5,1045.1,187.3,1048.8"/>
</g>
</svg>
